<svg width="50" height="50" viewBox="0 0 50 50" fill="none" xmlns="http://www.w3.org/2000/svg">
<path d="M46.0625 44.7083L4.97917 3.60413L2.3125 6.24996L15.9375 19.875C14.0417 22.9791 12.5 26.3541 12.5 29.6458C12.5 36.5416 18.1042 42.1458 25 42.1458C26.7261 42.1535 28.4344 41.7976 30.0138 41.1012C31.5932 40.4049 33.0082 39.3837 34.1667 38.1041L43.4167 47.3541L46.0625 44.7083ZM25 37.9791C20.375 37.9791 16.6667 34.2708 16.6667 29.6458C16.6667 28.125 17.7083 25.5625 19.0417 22.9791L31.25 35.1666C29.7083 36.8958 27.5 37.9791 25 37.9791ZM23.2083 16.5416L20.2292 13.5416C22.0208 11.2083 23.4375 9.60413 23.4375 9.60413L25 7.85413L26.5625 9.60413C26.5625 9.60413 29.2292 12.625 31.9167 16.5416C34.6042 20.4583 37.5 25.1458 37.5 29.6458C37.5 30.0208 37.5 30.3958 37.4375 30.7708L32.2083 25.5416C31.25 23.3958 29.9375 20.9791 28.5 18.8958C26.75 16.3541 25.9167 15.4583 25 14.375C24.4375 15.0208 23.9583 15.625 23.2083 16.5416Z" fill="white"/>
</svg>
