<svg width="50" height="50" viewBox="0 0 50 50" fill="none" xmlns="http://www.w3.org/2000/svg">
<path d="M19.6429 33.9285L10.7143 14.2857L1.78572 33.9285M19.6429 33.9285C19.6429 36.2965 18.7022 38.5676 17.0277 40.242C15.3533 41.9164 13.0823 42.8571 10.7143 42.8571C8.34628 42.8571 6.07527 41.9164 4.40083 40.242C2.7264 38.5676 1.78572 36.2965 1.78572 33.9285M19.6429 33.9285H1.78572M48.2143 33.9285L39.2857 14.2857L30.3571 33.9285M48.2143 33.9285C48.2143 36.2965 47.2736 38.5676 45.5992 40.242C43.9247 41.9164 41.6537 42.8571 39.2857 42.8571C36.9177 42.8571 34.6467 41.9164 32.9723 40.242C31.2978 38.5676 30.3571 36.2965 30.3571 33.9285M48.2143 33.9285H30.3571M5.35714 14.2857H44.6429M25 14.2857V7.14282" stroke="white" stroke-width="3" stroke-linecap="round" stroke-linejoin="round"/>
</svg>
