<svg width="50" height="50" viewBox="0 0 50 50" fill="none" xmlns="http://www.w3.org/2000/svg">
<path d="M25 45.8333C13.4937 45.8333 4.16666 36.5062 4.16666 25C4.16666 13.4937 13.4937 4.16663 25 4.16663C36.5062 4.16663 45.8333 13.4937 45.8333 25C45.8333 36.5062 36.5062 45.8333 25 45.8333ZM25 41.6666C29.4203 41.6666 33.6595 39.9107 36.7851 36.7851C39.9107 33.6595 41.6667 29.4202 41.6667 25C41.6667 20.5797 39.9107 16.3405 36.7851 13.2148C33.6595 10.0892 29.4203 8.33329 25 8.33329C20.5797 8.33329 16.3405 10.0892 13.2149 13.2148C10.0893 16.3405 8.33332 20.5797 8.33332 25C8.33332 29.4202 10.0893 33.6595 13.2149 36.7851C16.3405 39.9107 20.5797 41.6666 25 41.6666ZM27.0833 25H35.4167V29.1666H22.9167V14.5833H27.0833V25Z" fill="white"/>
</svg>
