<svg width="50" height="50" viewBox="0 0 50 50" fill="none" xmlns="http://www.w3.org/2000/svg">
<path fill-rule="evenodd" clip-rule="evenodd" d="M32.725 35.0601C32.8385 32.899 32.3414 30.7495 31.2904 28.8577C30.2395 26.9659 28.6773 25.4081 26.7825 24.3626C26.446 24.1679 26.047 24.1115 25.6697 24.2053C25.2925 24.299 24.9663 24.5356 24.76 24.8651L22.35 28.7226L20.345 26.2976C20.2348 26.1647 20.0984 26.056 19.9441 25.9784C19.7899 25.9009 19.6213 25.8561 19.4489 25.847C19.2765 25.8378 19.104 25.8644 18.9425 25.9252C18.7809 25.986 18.6336 26.0796 18.51 26.2001C17.3284 27.3412 16.4056 28.7228 15.8039 30.2513C15.2023 31.7798 14.9358 33.4197 15.0225 35.0601C15.0225 37.4073 15.9549 39.6583 17.6146 41.318C19.2743 42.9777 21.5253 43.9101 23.8725 43.9101C26.2197 43.9101 28.4707 42.9777 30.1304 41.318C31.7901 39.6583 32.7225 37.4073 32.7225 35.0601M19.34 29.0101C19.2873 29.0777 19.2357 29.146 19.185 29.2151C18.0091 30.8573 17.42 32.8474 17.5125 34.8651C17.5174 34.9141 17.5199 34.9633 17.52 35.0126C17.52 36.6967 18.189 38.3119 19.3799 39.5027C20.5707 40.6936 22.1859 41.3626 23.87 41.3626C25.5541 41.3626 27.1693 40.6936 28.3601 39.5027C29.551 38.3119 30.22 36.6967 30.22 35.0126L30.2275 34.8676C30.245 34.7051 30.635 30.2351 26.545 27.1951C26.478 27.1452 26.4105 27.0961 26.3425 27.0476L23.7325 31.2226C23.6065 31.424 23.4344 31.5925 23.2305 31.7143C23.0266 31.8362 22.7967 31.9079 22.5597 31.9235C22.3227 31.9391 22.0853 31.8983 21.8672 31.8042C21.649 31.7102 21.4564 31.5657 21.305 31.3826L19.34 29.0101Z" fill="white"/>
<path fill-rule="evenodd" clip-rule="evenodd" d="M22.435 5.22499C22.4871 4.95658 22.6116 4.70755 22.7952 4.50491C22.9787 4.30226 23.2143 4.15373 23.4762 4.07542C23.7382 3.99712 24.0166 3.99203 24.2812 4.0607C24.5459 4.12938 24.7867 4.26919 24.9775 4.46499C25.4625 4.95999 26.395 5.93999 27.3425 7.06999C28.2725 8.1775 29.2875 9.50999 29.8725 10.6975C30.4425 11.8575 31.0475 13.3575 31.525 14.61L33.7475 10.91C33.8714 10.7034 34.0433 10.5296 34.2487 10.4035C34.454 10.2773 34.6866 10.2025 34.927 10.1853C35.1673 10.1682 35.4083 10.2092 35.6294 10.3048C35.8506 10.4005 36.0454 10.5481 36.1975 10.735C39.355 14.635 40.9275 18.8125 41.71 22.0025C42.1025 23.6 42.3 24.9575 42.4 25.9225C42.4503 26.4045 42.4836 26.8881 42.5 27.3725V27.5C42.5 37.2425 34.7725 45.175 24.995 45.175C15.22 45.175 7.5 37.245 7.5 27.5C7.5 24.8175 8.7675 18.5 12.5175 13.32C12.6628 13.1198 12.8554 12.9588 13.0781 12.8512C13.3009 12.7436 13.5468 12.6929 13.7939 12.7035C14.041 12.7142 14.2816 12.7859 14.4943 12.9122C14.7069 13.0385 14.885 13.2156 15.0125 13.4275L17.55 17.65C18.32 16.445 19.35 14.7525 20.1325 13.19C21.2575 10.94 22.15 6.69749 22.435 5.22749M24.4925 7.60249C24.04 9.60249 23.2925 12.4575 22.3675 14.3125C21.1375 16.77 19.365 19.47 18.755 20.3775C18.6143 20.5863 18.4232 20.7562 18.1994 20.8716C17.9756 20.987 17.7264 21.044 17.4747 21.0376C17.223 21.0311 16.977 20.9613 16.7594 20.8345C16.5419 20.7078 16.3598 20.5282 16.23 20.3125L13.68 16.0675C10.94 20.5 10 25.4825 10 27.5C10 35.895 16.635 42.67 24.995 42.67C33.3575 42.67 40 35.895 40 27.5V27.43C39.9857 27.0117 39.9573 26.5939 39.915 26.1775C39.7864 24.9719 39.5751 23.7766 39.2825 22.6C38.4903 19.3188 37.082 16.218 35.1325 13.4625L32.5975 17.6825C32.4508 17.9263 32.2379 18.1234 31.9835 18.2509C31.7292 18.3784 31.4439 18.4311 31.1608 18.4028C30.8777 18.3745 30.6085 18.2664 30.3844 18.0911C30.1603 17.9158 29.9906 17.6805 29.895 17.4125C29.49 16.2775 28.4975 13.5675 27.6275 11.8025C27.185 10.9 26.3375 9.75999 25.4275 8.67749C25.122 8.31387 24.8103 7.95549 24.4925 7.60249Z" fill="white"/>
<path d="M2.87501 4.69504C2.634 4.4537 2.49873 4.12649 2.49896 3.78541C2.4992 3.44433 2.63492 3.11731 2.87626 2.87629C3.11761 2.63528 3.44482 2.50001 3.7859 2.50024C4.12698 2.50048 4.454 2.6362 4.69501 2.87754L47.1225 45.305C47.3635 45.5461 47.4989 45.8729 47.4989 46.2138C47.4989 46.5546 47.3635 46.8815 47.1225 47.1225C46.8815 47.3636 46.5546 47.499 46.2138 47.499C45.8729 47.499 45.546 47.3636 45.305 47.1225L2.87501 4.69504Z" fill="white"/>
</svg>
