<svg width="50" height="50" viewBox="0 0 50 50" fill="none" xmlns="http://www.w3.org/2000/svg">
<path d="M45.8333 16.6646C45.8329 16.2928 45.733 15.9279 45.544 15.6077C45.355 15.2875 45.0837 15.0237 44.7583 14.8438L25.9625 4.42711C25.6537 4.25696 25.3068 4.16772 24.9542 4.16772C24.6015 4.16772 24.2547 4.25696 23.9458 4.42711L5.24166 14.7604C4.91673 14.9404 4.64581 15.2039 4.45696 15.5237C4.2681 15.8435 4.16818 16.208 4.16754 16.5794C4.16691 16.9509 4.26558 17.3157 4.45333 17.6362C4.64109 17.9566 4.9111 18.2211 5.23541 18.4021L24.0312 28.9021C24.3407 29.076 24.6896 29.1675 25.0445 29.1678C25.3994 29.1682 25.7485 29.0774 26.0583 28.9042L44.7625 18.4875C45.0874 18.3069 45.358 18.0425 45.5463 17.722C45.7346 17.4015 45.8337 17.0364 45.8333 16.6646ZM25.0479 24.6959L10.5417 16.5938L24.9521 8.63128L39.4604 16.6709L25.0479 24.6959Z" fill="white"/>
<path d="M42.7396 23.1792L25 33.0334L7.2604 23.1792L5.23749 26.8209L23.9875 37.2375C24.2969 37.4094 24.645 37.4995 24.9989 37.4995C25.3529 37.4995 25.701 37.4094 26.0104 37.2375L44.7604 26.8209L42.7396 23.1792Z" fill="white"/>
<path d="M42.7396 31.5125L25 41.3666L7.2604 31.5125L5.23749 35.1541L23.9875 45.5708C24.2969 45.7426 24.645 45.8328 24.9989 45.8328C25.3529 45.8328 25.701 45.7426 26.0104 45.5708L44.7604 35.1541L42.7396 31.5125Z" fill="white"/>
</svg>
