<svg width="50" height="50" viewBox="0 0 50 50" fill="none" xmlns="http://www.w3.org/2000/svg">
<path d="M47.9166 8.54163V4.79163L44.1667 4.37496C43.9583 4.37496 42.7083 4.16663 40.625 4.16663C32.0833 4.16663 25.8333 6.66663 22.2916 11.0416C19.5833 9.37496 15.8333 8.33329 11.4583 8.33329C9.37498 8.33329 7.91665 8.54163 7.91665 8.54163L3.95831 9.16663L4.16665 12.7083C4.37498 18.9583 7.49998 30.8333 18.3333 30.8333H18.75V37.9166C10.8333 38.9583 4.16665 41.6666 4.16665 41.6666V45.8333H45.8333V41.6666C45.8333 41.6666 39.1666 38.9583 31.25 37.9166V31.25C44.375 31.0416 47.9166 16.25 47.9166 8.54163ZM25 37.5H22.9166V25.8333C22.9166 25.8333 22.5 18.75 16.6666 18.75C16.6666 18.75 19.7916 20.4166 20.625 26.4583C19.7916 26.6666 18.9583 26.6666 18.3333 26.6666C8.74998 26.6666 8.33331 12.7083 8.33331 12.7083C8.33331 12.7083 9.58331 12.5 11.4583 12.5C15.4166 12.5 21.875 13.3333 23.75 18.9583C24.7916 9.58329 35.4166 8.33329 40.625 8.33329C42.5 8.33329 43.75 8.54163 43.75 8.54163C43.75 8.54163 43.75 27.2916 30.625 27.2916H29.1666C29.1666 23.125 33.3333 16.875 33.3333 16.875C27.0833 18.9583 27.0833 27.0833 27.0833 27.0833V37.5H25Z" fill="white"/>
</svg>
