<svg width="105" height="105" viewBox="0 0 105 105" fill="none" xmlns="http://www.w3.org/2000/svg">
<rect width="105" height="105" fill="#141414"/>
<g clip-path="url(#clip0_311_73)">
<g clip-path="url(#clip1_311_73)">
<path d="M55.875 15.375V27.2955C62.4394 28.7805 67.4411 34.4944 67.4411 41.4874C67.4411 44.6228 66.4354 47.5016 64.731 49.8574L73.1246 66.3206C75.1613 65.6313 77.1619 64.8394 79.1186 63.948L82.1899 62.5474L84.9911 68.6899L81.9199 70.0905C80.0467 70.9444 78.1466 71.7105 76.2229 72.3922L85.008 89.625H77.4176L69.645 74.37C58.3856 77.1627 46.6144 77.1627 35.355 74.37L27.5756 89.625H19.9886L28.7771 72.3922C26.8534 71.7105 24.9499 70.941 23.0801 70.0905L20.0089 68.6899L22.8101 62.5474L25.8814 63.948C27.8422 64.8424 29.8436 65.6355 31.872 66.3206L40.2656 49.8574C38.5013 47.4236 37.5537 44.4933 37.5589 41.4874C37.5589 34.4944 42.5572 28.7805 49.125 27.2955V15.375H55.875ZM38.5072 68.1769C47.7142 70.2255 57.2857 70.2255 66.4894 68.1769L59.4592 54.3731C57.3064 55.4795 54.9205 56.0557 52.5 56.0539C50.0025 56.0539 47.6265 55.4464 45.5407 54.3765L38.5072 68.1769ZM52.5 33.6709C47.8695 33.6709 44.3089 37.2754 44.3089 41.4874C44.3089 45.6994 47.8695 49.3039 52.5 49.3039C57.1271 49.3039 60.6911 45.6994 60.6911 41.4874C60.6911 37.2754 57.1271 33.6709 52.5 33.6709Z" fill="white"/>
</g>
</g>
<defs>
<clipPath id="clip0_311_73">
<rect width="81" height="81" fill="white" transform="translate(12 12)"/>
</clipPath>
<clipPath id="clip1_311_73">
<rect width="81" height="81" fill="white" transform="translate(12 12)"/>
</clipPath>
</defs>
</svg>
