<svg width="105" height="105" viewBox="0 0 105 105" fill="none" xmlns="http://www.w3.org/2000/svg">
<rect width="105" height="105" fill="#141414"/>
<g clip-path="url(#clip0_311_342)">
<g clip-path="url(#clip1_311_342)">
<g clip-path="url(#clip2_311_342)">
<path fill-rule="evenodd" clip-rule="evenodd" d="M68.9532 24.6561C67.1736 24.6552 65.4186 25.0712 63.8289 25.8709C62.2391 26.6705 60.8588 27.8315 59.7987 29.2608C58.7385 30.6901 58.028 32.3479 57.7241 34.1013C57.4202 35.8547 57.5313 37.6549 58.0485 39.3576L58.7067 41.5344L57.1018 43.1443L25.441 74.8001C24.8099 75.4312 24.4554 76.2871 24.4554 77.1795C24.4554 78.0719 24.8099 78.9278 25.441 79.5589C26.072 80.1899 26.9279 80.5444 27.8203 80.5444C28.7128 80.5444 29.5687 80.1899 30.1997 79.5589L61.8555 47.8929L63.4654 46.2831L65.6423 46.9412C67.7573 47.5854 70.0141 47.6002 72.1374 46.9837C74.2607 46.3672 76.1586 45.1461 77.5997 43.4694C79.0409 41.7926 79.9629 39.7327 80.2533 37.5409C80.5436 35.3491 80.1899 33.1201 79.2351 31.1259L71.6413 38.7248C71.2913 39.0876 70.8724 39.377 70.4093 39.5762C69.9462 39.7754 69.448 39.8804 68.9438 39.885C68.4397 39.8896 67.9397 39.7938 67.473 39.6031C67.0063 39.4124 66.5822 39.1307 66.2255 38.7744C65.8689 38.418 65.5867 37.9942 65.3956 37.5277C65.2045 37.0612 65.1082 36.5612 65.1123 36.0571C65.1165 35.553 65.221 35.0547 65.4197 34.5914C65.6185 34.128 65.9076 33.7089 66.27 33.3585L73.8638 25.7648C72.331 25.0304 70.6528 24.6548 68.9532 24.6561ZM49.9688 36.0467C49.9691 32.1541 51.166 28.3557 53.3973 25.1662C55.6286 21.9766 58.7864 19.55 62.443 18.2151C66.0995 16.8803 70.078 16.7017 73.8394 17.7036C77.6008 18.7054 80.9634 20.8394 83.4715 23.8162C85.9795 26.793 87.5119 30.4689 87.861 34.3458C88.2101 38.2227 87.359 42.1132 85.4231 45.4902C83.4871 48.8672 80.5599 51.5675 77.0379 53.2252C73.516 54.8829 69.5696 55.4179 65.7334 54.7577L62.9338 57.5623L67.6875 62.3211L70.0669 59.9417L72.75 57.2586L75.4332 59.9417L84.9253 69.4339C85.9682 70.4453 86.7995 71.654 87.3708 72.9898C87.9421 74.3255 88.242 75.7615 88.2532 77.2142C88.2643 78.6669 87.9863 80.1074 87.4355 81.4517C86.8847 82.796 86.072 84.0173 85.0448 85.0445C84.0175 86.0718 82.7962 86.8845 81.4519 87.4353C80.1076 87.9861 78.6672 88.2641 77.2144 88.2529C75.7617 88.2418 74.3257 87.9419 72.99 87.3706C71.6543 86.7993 70.4455 85.968 69.4341 84.9251L59.9419 75.4329L57.2588 72.7498L59.9419 70.0667L62.3213 67.6873L57.5625 62.9286L35.566 84.9251C34.5545 85.968 33.3458 86.7993 32.0101 87.3706C30.6744 87.9419 29.2384 88.2418 27.7856 88.2529C26.3329 88.2641 24.8925 87.9861 23.5482 87.4353C22.2039 86.8845 20.9826 86.0718 19.9553 85.0445C18.928 84.0173 18.1154 82.796 17.5645 81.4517C17.0137 80.1074 16.7358 78.6669 16.7469 77.2142C16.758 75.7615 17.058 74.3255 17.6293 72.9898C18.2006 71.654 19.0319 70.4453 20.0747 69.4339L42.0662 47.4373L29.7188 35.0848L26.5952 38.2084L24.0285 34.3558L18.966 26.7621L17.2397 24.1701L19.4419 21.9729L21.9732 19.4417L24.1703 17.2395L26.7623 18.9658L34.356 24.0283L38.2086 26.595L35.0901 29.7186L47.4375 42.0711L50.2422 39.2664C50.0602 38.2029 49.9687 37.1257 49.9688 36.0467ZM72.75 67.9911L79.5591 74.8001C80.1901 75.4312 80.5447 76.2871 80.5447 77.1795C80.5447 78.0719 80.1901 78.9278 79.5591 79.5589C78.928 80.1899 78.0722 80.5444 77.1797 80.5444C76.2873 80.5444 75.4314 80.1899 74.8003 79.5589L67.9963 72.7498L72.75 67.9911Z" fill="white"/>
</g>
</g>
</g>
<defs>
<clipPath id="clip0_311_342">
<rect width="81" height="81" fill="white" transform="translate(12 12)"/>
</clipPath>
<clipPath id="clip1_311_342">
<rect width="81" height="81" fill="white" transform="translate(12 12)"/>
</clipPath>
<clipPath id="clip2_311_342">
<rect width="81" height="81" fill="white" transform="translate(12 12)"/>
</clipPath>
</defs>
</svg>
