<svg width="105" height="105" viewBox="0 0 105 105" fill="none" xmlns="http://www.w3.org/2000/svg">
<rect width="105" height="105" fill="#141414"/>
<path d="M61.7948 45.75C65.055 45.75 67.701 48.396 67.701 51.6562V67.6841C67.701 71.713 66.1005 75.5769 63.2517 78.4257C60.4029 81.2745 56.539 82.875 52.5101 82.875C48.4813 82.875 44.6174 81.2745 41.7686 78.4257C38.9197 75.5769 37.3193 71.713 37.3193 67.6841V51.6562C37.3193 48.396 39.9619 45.75 43.2255 45.75H61.7948ZM61.7948 50.8125H43.2255C43.0017 50.8125 42.7871 50.9014 42.6289 51.0596C42.4706 51.2179 42.3818 51.4325 42.3818 51.6562V67.6841C42.3818 70.3703 43.4488 72.9465 45.3483 74.846C47.2477 76.7454 49.8239 77.8125 52.5101 77.8125C55.1963 77.8125 57.7725 76.7454 59.672 74.846C61.5714 72.9465 62.6385 70.3703 62.6385 67.6841V51.6562C62.6385 51.4325 62.5496 51.2179 62.3914 51.0596C62.2331 50.9014 62.0185 50.8125 61.7948 50.8125ZM24.6562 45.75H36.0671C34.8764 47.188 34.1492 48.953 33.9814 50.8125H24.6562C24.4325 50.8125 24.2179 50.9014 24.0596 51.0596C23.9014 51.2179 23.8125 51.4325 23.8125 51.6562V62.6216C23.8123 63.897 24.1011 65.1558 24.6572 66.3035C25.2133 67.4513 26.0222 68.4581 27.0232 69.2483C28.0243 70.0385 29.1914 70.5917 30.4368 70.8661C31.6823 71.1406 32.9738 71.1293 34.2142 70.833C34.5011 72.534 35.0243 74.1574 35.7431 75.666C33.7427 76.2012 31.646 76.2691 29.6151 75.8645C27.5843 75.4599 25.6736 74.5937 24.031 73.3327C22.3884 72.0718 21.0578 70.45 20.1421 68.5927C19.2263 66.7354 18.75 64.6924 18.75 62.6216V51.6562C18.75 48.396 21.396 45.75 24.6562 45.75ZM68.9531 45.75H80.3438C83.604 45.75 86.25 48.396 86.25 51.6562V62.625C86.2505 64.6944 85.7752 66.7363 84.8608 68.5927C83.9465 70.4492 82.6176 72.0706 80.9768 73.3317C79.336 74.5928 77.4272 75.4598 75.398 75.8657C73.3688 76.2717 71.2734 76.2056 69.2737 75.6727C69.996 74.1607 70.5191 72.5374 70.8094 70.8364C72.0483 71.1292 73.3374 71.1378 74.5801 70.8617C75.8229 70.5856 76.987 70.0318 77.9854 69.2419C78.9837 68.452 79.7904 67.4464 80.3449 66.3005C80.8995 65.1546 81.1875 63.898 81.1875 62.625V51.6562C81.1875 51.4325 81.0986 51.2179 80.9404 51.0596C80.7821 50.9014 80.5675 50.8125 80.3438 50.8125H71.0389C70.871 48.953 70.1438 47.188 68.9531 45.75ZM52.5 22.125C55.1853 22.125 57.7607 23.1917 59.6595 25.0905C61.5583 26.9893 62.625 29.5647 62.625 32.25C62.625 34.9353 61.5583 37.5107 59.6595 39.4095C57.7607 41.3083 55.1853 42.375 52.5 42.375C49.8147 42.375 47.2393 41.3083 45.3405 39.4095C43.4417 37.5107 42.375 34.9353 42.375 32.25C42.375 29.5647 43.4417 26.9893 45.3405 25.0905C47.2393 23.1917 49.8147 22.125 52.5 22.125ZM74.4375 25.5C76.6753 25.5 78.8214 26.3889 80.4037 27.9713C81.9861 29.5536 82.875 31.6997 82.875 33.9375C82.875 36.1753 81.9861 38.3214 80.4037 39.9037C78.8214 41.4861 76.6753 42.375 74.4375 42.375C72.1997 42.375 70.0536 41.4861 68.4713 39.9037C66.8889 38.3214 66 36.1753 66 33.9375C66 31.6997 66.8889 29.5536 68.4713 27.9713C70.0536 26.3889 72.1997 25.5 74.4375 25.5ZM30.5625 25.5C32.8003 25.5 34.9464 26.3889 36.5287 27.9713C38.1111 29.5536 39 31.6997 39 33.9375C39 36.1753 38.1111 38.3214 36.5287 39.9037C34.9464 41.4861 32.8003 42.375 30.5625 42.375C28.3247 42.375 26.1786 41.4861 24.5963 39.9037C23.0139 38.3214 22.125 36.1753 22.125 33.9375C22.125 31.6997 23.0139 29.5536 24.5963 27.9713C26.1786 26.3889 28.3247 25.5 30.5625 25.5ZM52.5 27.1875C51.1573 27.1875 49.8697 27.7209 48.9203 28.6703C47.9709 29.6197 47.4375 30.9073 47.4375 32.25C47.4375 33.5927 47.9709 34.8803 48.9203 35.8297C49.8697 36.7791 51.1573 37.3125 52.5 37.3125C53.8427 37.3125 55.1303 36.7791 56.0797 35.8297C57.0291 34.8803 57.5625 33.5927 57.5625 32.25C57.5625 30.9073 57.0291 29.6197 56.0797 28.6703C55.1303 27.7209 53.8427 27.1875 52.5 27.1875ZM74.4375 30.5625C73.5424 30.5625 72.6839 30.9181 72.051 31.551C71.4181 32.184 71.0625 33.0424 71.0625 33.9375C71.0625 34.8326 71.4181 35.691 72.051 36.324C72.6839 36.9569 73.5424 37.3125 74.4375 37.3125C75.3326 37.3125 76.1911 36.9569 76.824 36.324C77.4569 35.691 77.8125 34.8326 77.8125 33.9375C77.8125 33.0424 77.4569 32.184 76.824 31.551C76.1911 30.9181 75.3326 30.5625 74.4375 30.5625ZM30.5625 30.5625C29.6674 30.5625 28.809 30.9181 28.176 31.551C27.5431 32.184 27.1875 33.0424 27.1875 33.9375C27.1875 34.8326 27.5431 35.691 28.176 36.324C28.809 36.9569 29.6674 37.3125 30.5625 37.3125C31.4576 37.3125 32.316 36.9569 32.949 36.324C33.5819 35.691 33.9375 34.8326 33.9375 33.9375C33.9375 33.0424 33.5819 32.184 32.949 31.551C32.316 30.9181 31.4576 30.5625 30.5625 30.5625Z" fill="white"/>
</svg>
