<svg width="88" height="72" viewBox="0 0 88 72" fill="none" xmlns="http://www.w3.org/2000/svg">
<mask id="path-1-outside-1_311_168" maskUnits="userSpaceOnUse" x="-1" y="-1" width="90" height="74" fill="black">
<rect fill="white" x="-1" y="-1" width="90" height="74"/>
<path d="M48.648 36.592C48.648 46.64 46.728 54.768 42.888 60.976C38.664 67.824 32.584 71.248 24.648 71.248C16.648 71.248 10.568 67.92 6.408 61.264C2.504 54.992 0.552 46.768 0.552 36.592C0.552 26.288 2.504 17.744 6.408 10.96C10.568 3.664 16.584 0.0159969 24.456 0.0159969C33.416 0.0159969 40.04 4.72 44.328 14.128C47.208 20.528 48.648 28.016 48.648 36.592ZM24.36 59.056C27.944 59.056 30.44 56.688 31.848 51.952C33.256 47.344 33.96 42.256 33.96 36.688C33.96 31.44 33.416 26.352 32.328 21.424C30.984 15.28 28.36 12.208 24.456 12.208C20.808 12.208 18.344 15.088 17.064 20.848C15.912 25.712 15.336 30.992 15.336 36.688C15.336 42.64 16.04 47.888 17.448 52.432C18.856 56.848 21.16 59.056 24.36 59.056ZM87.165 1.264V63.568L79.677 70H72.381V18.352L61.917 26.992L55.197 18.544L75.165 1.264H87.165Z"/>
</mask>
<path d="M42.888 60.976L42.0375 60.4499L42.0369 60.451L42.888 60.976ZM6.408 61.264L5.55903 61.7924L5.56 61.794L6.408 61.264ZM6.408 10.96L7.27474 11.4588L7.27671 11.4553L6.408 10.96ZM44.328 14.128L45.2399 13.7176L45.2379 13.7133L44.328 14.128ZM31.848 51.952L30.8916 51.6598L30.8895 51.667L31.848 51.952ZM32.328 21.424L31.3511 21.6377L31.3515 21.6396L32.328 21.424ZM17.064 20.848L18.0372 21.0785L18.0402 21.0649L17.064 20.848ZM17.448 52.432L16.4928 52.728L16.4953 52.7358L17.448 52.432ZM47.648 36.592C47.648 46.5215 45.7496 54.4488 42.0375 60.4499L43.7385 61.5021C47.7064 55.0872 49.648 46.7585 49.648 36.592H47.648ZM42.0369 60.451C37.9919 67.0088 32.2313 70.248 24.648 70.248V72.248C32.9367 72.248 39.3361 68.6392 43.7391 61.501L42.0369 60.451ZM24.648 70.248C16.9847 70.248 11.229 67.0908 7.256 60.734L5.56 61.794C9.90698 68.7492 16.3113 72.248 24.648 72.248V70.248ZM7.25697 60.7356C3.48226 54.6713 1.552 46.649 1.552 36.592H-0.448C-0.448 46.887 1.52574 55.3127 5.55903 61.7924L7.25697 60.7356ZM1.552 36.592C1.552 26.4093 3.48144 18.0504 7.27473 11.4588L5.54127 10.4612C1.52656 17.4376 -0.448 26.1667 -0.448 36.592H1.552ZM7.27671 11.4553C11.2734 4.44576 16.9717 1.016 24.456 1.016V-0.984003C16.1963 -0.984003 9.86261 2.88223 5.53929 10.4647L7.27671 11.4553ZM24.456 1.016C28.7509 1.016 32.4395 2.13979 35.565 4.35933C38.6992 6.58505 41.3276 9.95613 43.4181 14.5427L45.2379 13.7133C43.0404 8.89186 40.2128 5.20695 36.723 2.72867C33.2245 0.244205 29.1211 -0.984003 24.456 -0.984003V1.016ZM43.4161 14.5384C46.2266 20.784 47.648 28.1268 47.648 36.592H49.648C49.648 27.9052 48.1894 20.272 45.2399 13.7176L43.4161 14.5384ZM24.36 60.056C26.3963 60.056 28.1661 59.3737 29.6083 58.0055C31.027 56.6595 32.0731 54.704 32.8065 52.237L30.8895 51.667C30.2149 53.936 29.309 55.5325 28.2317 56.5545C27.1779 57.5543 25.9077 58.056 24.36 58.056V60.056ZM32.8044 52.2442C34.2454 47.5281 34.96 42.34 34.96 36.688H32.96C32.96 42.172 32.2666 47.1599 30.8916 51.6598L32.8044 52.2442ZM34.96 36.688C34.96 31.3704 34.4087 26.21 33.3045 21.2084L31.3515 21.6396C32.4233 26.494 32.96 31.5096 32.96 36.688H34.96ZM33.3049 21.2103C32.6155 18.0586 31.5747 15.5745 30.1124 13.8625C28.618 12.113 26.712 11.208 24.456 11.208V13.208C26.104 13.208 27.462 13.839 28.5916 15.1615C29.7533 16.5215 30.6965 18.6454 31.3511 21.6377L33.3049 21.2103ZM24.456 11.208C22.327 11.208 20.5257 12.0658 19.1121 13.7179C17.7304 15.3329 16.7454 17.6718 16.0878 20.6311L18.0402 21.0649C18.6626 18.2642 19.5496 16.2831 20.6319 15.0181C21.6823 13.7902 22.937 13.208 24.456 13.208V11.208ZM16.0909 20.6175C14.9188 25.5667 14.336 30.9249 14.336 36.688H16.336C16.336 31.059 16.9052 25.8573 18.0371 21.0785L16.0909 20.6175ZM14.336 36.688C14.336 42.7163 15.0487 48.0676 16.4928 52.728L18.4032 52.136C17.0313 47.7084 16.336 42.5637 16.336 36.688H14.336ZM16.4953 52.7358C17.2286 55.0357 18.2254 56.862 19.5401 58.122C20.8788 59.4049 22.5029 60.056 24.36 60.056V58.056C23.0171 58.056 21.8892 57.6031 20.9239 56.678C19.9346 55.73 19.0754 54.2443 18.4007 52.1282L16.4953 52.7358ZM87.165 1.264H88.165V0.263998H87.165V1.264ZM87.165 63.568L87.8166 64.3266L88.165 64.0273V63.568H87.165ZM79.677 70V71H80.0475L80.3286 70.7586L79.677 70ZM72.381 70H71.381V71H72.381V70ZM72.381 18.352H73.381V16.2295L71.7443 17.5809L72.381 18.352ZM61.917 26.992L61.1344 27.6145L61.7684 28.4115L62.5537 27.7631L61.917 26.992ZM55.197 18.544L54.5426 17.7878L53.8171 18.4157L54.4144 19.1665L55.197 18.544ZM75.165 1.264V0.263998H74.7924L74.5106 0.50783L75.165 1.264ZM86.165 1.264V63.568H88.165V1.264H86.165ZM86.5134 62.8094L79.0254 69.2414L80.3286 70.7586L87.8166 64.3266L86.5134 62.8094ZM79.677 69H72.381V71H79.677V69ZM73.381 70V18.352H71.381V70H73.381ZM71.7443 17.5809L61.2803 26.2209L62.5537 27.7631L73.0177 19.1231L71.7443 17.5809ZM62.6996 26.3695L55.9796 17.9215L54.4144 19.1665L61.1344 27.6145L62.6996 26.3695ZM55.8514 19.3002L75.8194 2.02017L74.5106 0.50783L54.5426 17.7878L55.8514 19.3002ZM75.165 2.264H87.165V0.263998H75.165V2.264Z" fill="#141414" mask="url(#path-1-outside-1_311_168)"/>
</svg>
