<svg width="98" height="72" viewBox="0 0 98 72" fill="none" xmlns="http://www.w3.org/2000/svg">
<mask id="path-1-outside-1_311_82" maskUnits="userSpaceOnUse" x="-1" y="-1" width="100" height="74" fill="black">
<rect fill="white" x="-1" y="-1" width="100" height="74"/>
<path d="M48.648 36.592C48.648 46.64 46.728 54.768 42.888 60.976C38.664 67.824 32.584 71.248 24.648 71.248C16.648 71.248 10.568 67.92 6.408 61.264C2.504 54.992 0.552 46.768 0.552 36.592C0.552 26.288 2.504 17.744 6.408 10.96C10.568 3.664 16.584 0.0159969 24.456 0.0159969C33.416 0.0159969 40.04 4.72 44.328 14.128C47.208 20.528 48.648 28.016 48.648 36.592ZM24.36 59.056C27.944 59.056 30.44 56.688 31.848 51.952C33.256 47.344 33.96 42.256 33.96 36.688C33.96 31.44 33.416 26.352 32.328 21.424C30.984 15.28 28.36 12.208 24.456 12.208C20.808 12.208 18.344 15.088 17.064 20.848C15.912 25.712 15.336 30.992 15.336 36.688C15.336 42.64 16.04 47.888 17.448 52.432C18.856 56.848 21.16 59.056 24.36 59.056ZM57.693 6.544C63.773 2.512 69.981 0.495996 76.317 0.495996C82.909 0.495996 87.933 2.512 91.389 6.544C94.333 9.936 95.805 14.448 95.805 20.08C95.805 23.728 94.941 27.344 93.213 30.928C91.485 34.448 88.317 39.056 83.709 44.752C81.021 48.208 79.517 50.064 79.197 50.32L72.189 57.616H97.245V62.416L91.293 70H55.197V57.616L62.013 51.088L68.253 44.368C73.949 38.352 77.789 33.712 79.773 30.448C81.821 27.184 82.845 23.984 82.845 20.848C82.845 15.984 79.837 13.552 73.821 13.552C70.941 13.552 67.933 14.608 64.797 16.72L57.693 6.544Z"/>
</mask>
<path d="M42.888 60.976L42.0375 60.4499L42.0369 60.451L42.888 60.976ZM6.408 61.264L5.55903 61.7924L5.56 61.794L6.408 61.264ZM6.408 10.96L7.27474 11.4588L7.27671 11.4553L6.408 10.96ZM44.328 14.128L45.2399 13.7176L45.2379 13.7133L44.328 14.128ZM31.848 51.952L30.8916 51.6598L30.8895 51.667L31.848 51.952ZM32.328 21.424L31.3511 21.6377L31.3515 21.6396L32.328 21.424ZM17.064 20.848L18.0372 21.0785L18.0402 21.0649L17.064 20.848ZM17.448 52.432L16.4928 52.728L16.4953 52.7358L17.448 52.432ZM47.648 36.592C47.648 46.5215 45.7496 54.4488 42.0375 60.4499L43.7385 61.5021C47.7064 55.0872 49.648 46.7585 49.648 36.592H47.648ZM42.0369 60.451C37.9919 67.0088 32.2313 70.248 24.648 70.248V72.248C32.9367 72.248 39.3361 68.6392 43.7391 61.501L42.0369 60.451ZM24.648 70.248C16.9847 70.248 11.229 67.0908 7.256 60.734L5.56 61.794C9.90698 68.7492 16.3113 72.248 24.648 72.248V70.248ZM7.25697 60.7356C3.48226 54.6713 1.552 46.649 1.552 36.592H-0.448C-0.448 46.887 1.52574 55.3127 5.55903 61.7924L7.25697 60.7356ZM1.552 36.592C1.552 26.4093 3.48144 18.0504 7.27473 11.4588L5.54127 10.4612C1.52656 17.4376 -0.448 26.1667 -0.448 36.592H1.552ZM7.27671 11.4553C11.2734 4.44576 16.9717 1.016 24.456 1.016V-0.984003C16.1963 -0.984003 9.86261 2.88223 5.53929 10.4647L7.27671 11.4553ZM24.456 1.016C28.7509 1.016 32.4395 2.13979 35.565 4.35933C38.6992 6.58505 41.3276 9.95613 43.4181 14.5427L45.2379 13.7133C43.0404 8.89186 40.2128 5.20695 36.723 2.72867C33.2245 0.244205 29.1211 -0.984003 24.456 -0.984003V1.016ZM43.4161 14.5384C46.2266 20.784 47.648 28.1268 47.648 36.592H49.648C49.648 27.9052 48.1894 20.272 45.2399 13.7176L43.4161 14.5384ZM24.36 60.056C26.3963 60.056 28.1661 59.3737 29.6083 58.0055C31.027 56.6595 32.0731 54.704 32.8065 52.237L30.8895 51.667C30.2149 53.936 29.309 55.5325 28.2317 56.5545C27.1779 57.5543 25.9077 58.056 24.36 58.056V60.056ZM32.8044 52.2442C34.2454 47.5281 34.96 42.34 34.96 36.688H32.96C32.96 42.172 32.2666 47.1599 30.8916 51.6598L32.8044 52.2442ZM34.96 36.688C34.96 31.3704 34.4087 26.21 33.3045 21.2084L31.3515 21.6396C32.4233 26.494 32.96 31.5096 32.96 36.688H34.96ZM33.3049 21.2103C32.6155 18.0586 31.5747 15.5745 30.1124 13.8625C28.618 12.113 26.712 11.208 24.456 11.208V13.208C26.104 13.208 27.462 13.839 28.5916 15.1615C29.7533 16.5215 30.6965 18.6454 31.3511 21.6377L33.3049 21.2103ZM24.456 11.208C22.327 11.208 20.5257 12.0658 19.1121 13.7179C17.7304 15.3329 16.7454 17.6718 16.0878 20.6311L18.0402 21.0649C18.6626 18.2642 19.5496 16.2831 20.6319 15.0181C21.6823 13.7902 22.937 13.208 24.456 13.208V11.208ZM16.0909 20.6175C14.9188 25.5667 14.336 30.9249 14.336 36.688H16.336C16.336 31.059 16.9052 25.8573 18.0371 21.0785L16.0909 20.6175ZM14.336 36.688C14.336 42.7163 15.0487 48.0676 16.4928 52.728L18.4032 52.136C17.0313 47.7084 16.336 42.5637 16.336 36.688H14.336ZM16.4953 52.7358C17.2286 55.0357 18.2254 56.862 19.5401 58.122C20.8788 59.4049 22.5029 60.056 24.36 60.056V58.056C23.0171 58.056 21.8892 57.6031 20.9239 56.678C19.9346 55.73 19.0754 54.2443 18.4007 52.1282L16.4953 52.7358ZM57.693 6.544L57.1403 5.7106L56.2868 6.27664L56.873 7.11642L57.693 6.544ZM91.389 6.544L90.6297 7.1948L90.6338 7.19947L91.389 6.544ZM93.213 30.928L94.1107 31.3687L94.1138 31.3623L93.213 30.928ZM83.709 44.752L82.9316 44.1231L82.9255 44.1305L82.9196 44.1381L83.709 44.752ZM79.197 50.32L78.5723 49.5391L78.5212 49.58L78.4758 49.6273L79.197 50.32ZM72.189 57.616L71.4678 56.9233L69.8419 58.616H72.189V57.616ZM97.245 57.616H98.245V56.616H97.245V57.616ZM97.245 62.416L98.0317 63.0334L98.245 62.7616V62.416H97.245ZM91.293 70V71H91.7794L92.0797 70.6174L91.293 70ZM55.197 70H54.197V71H55.197V70ZM55.197 57.616L54.5053 56.8938L54.197 57.1891V57.616H55.197ZM62.013 51.088L62.7047 51.8102L62.7259 51.7899L62.7458 51.7684L62.013 51.088ZM68.253 44.368L67.5268 43.6804L67.5202 43.6875L68.253 44.368ZM79.773 30.448L78.9259 29.9165L78.9222 29.9225L78.9185 29.9286L79.773 30.448ZM64.797 16.72L63.977 17.2924L64.5399 18.0988L65.3556 17.5494L64.797 16.72ZM58.2457 7.3774C64.1873 3.43715 70.2061 1.496 76.317 1.496V-0.504004C69.7559 -0.504004 63.3587 1.58685 57.1403 5.7106L58.2457 7.3774ZM76.317 1.496C82.6936 1.496 87.4084 3.43658 90.6297 7.19479L92.1483 5.89321C88.4576 1.58741 83.1244 -0.504004 76.317 -0.504004V1.496ZM90.6338 7.19947C93.3829 10.3669 94.805 14.6256 94.805 20.08H96.805C96.805 14.2704 95.2831 9.50505 92.1442 5.88853L90.6338 7.19947ZM94.805 20.08C94.805 23.5644 93.9809 27.0327 92.3122 30.4937L94.1138 31.3623C95.9011 27.6553 96.805 23.8916 96.805 20.08H94.805ZM92.3153 30.4873C90.6373 33.9055 87.5256 38.4443 82.9316 44.1231L84.4865 45.3809C89.1084 39.6677 92.3327 34.9905 94.1107 31.3687L92.3153 30.4873ZM82.9196 44.1381C81.577 45.8643 80.5338 47.1862 79.7881 48.1064C79.4147 48.5671 79.1202 48.9219 78.9022 49.1744C78.6583 49.4568 78.5663 49.544 78.5723 49.5391L79.8217 51.1009C79.9877 50.968 80.2037 50.7272 80.4158 50.4816C80.6538 50.2061 80.9633 49.8329 81.3419 49.3656C82.1002 48.4298 83.153 47.0956 84.4984 45.3659L82.9196 44.1381ZM78.4758 49.6273L71.4678 56.9233L72.9102 58.3087L79.9182 51.0127L78.4758 49.6273ZM72.189 58.616H97.245V56.616H72.189V58.616ZM96.245 57.616V62.416H98.245V57.616H96.245ZM96.4583 61.7986L90.5063 69.3826L92.0797 70.6174L98.0317 63.0334L96.4583 61.7986ZM91.293 69H55.197V71H91.293V69ZM56.197 70V57.616H54.197V70H56.197ZM55.8887 58.3382L62.7047 51.8102L61.3213 50.3658L54.5053 56.8938L55.8887 58.3382ZM62.7458 51.7684L68.9858 45.0485L67.5202 43.6875L61.2802 50.4075L62.7458 51.7684ZM68.9792 45.0555C74.681 39.0334 78.5845 34.3285 80.6275 30.9674L78.9185 29.9286C76.9935 33.0955 73.217 37.6706 67.5268 43.6805L68.9792 45.0555ZM80.6201 30.9795C82.7451 27.5927 83.845 24.2109 83.845 20.848H81.845C81.845 23.7571 80.8969 26.7753 78.9259 29.9165L80.6201 30.9795ZM83.845 20.848C83.845 18.1989 83.0155 16.0519 81.2177 14.5984C79.4606 13.1777 76.9377 12.552 73.821 12.552V14.552C76.7203 14.552 78.7094 15.1423 79.9603 16.1536C81.1705 17.1321 81.845 18.6331 81.845 20.848H83.845ZM73.821 12.552C70.6883 12.552 67.4885 13.7017 64.2384 15.8906L65.3556 17.5494C68.3775 15.5143 71.1937 14.552 73.821 14.552V12.552ZM65.617 16.1476L58.513 5.97157L56.873 7.11642L63.977 17.2924L65.617 16.1476Z" fill="#141414" mask="url(#path-1-outside-1_311_82)"/>
</svg>
