<svg width="99" height="72" viewBox="0 0 99 72" fill="none" xmlns="http://www.w3.org/2000/svg">
<mask id="path-1-outside-1_311_351" maskUnits="userSpaceOnUse" x="-1" y="-1" width="101" height="74" fill="black">
<rect fill="white" x="-1" y="-1" width="101" height="74"/>
<path d="M48.648 36.592C48.648 46.64 46.728 54.768 42.888 60.976C38.664 67.824 32.584 71.248 24.648 71.248C16.648 71.248 10.568 67.92 6.408 61.264C2.504 54.992 0.552 46.768 0.552 36.592C0.552 26.288 2.504 17.744 6.408 10.96C10.568 3.664 16.584 0.0159969 24.456 0.0159969C33.416 0.0159969 40.04 4.72 44.328 14.128C47.208 20.528 48.648 28.016 48.648 36.592ZM24.36 59.056C27.944 59.056 30.44 56.688 31.848 51.952C33.256 47.344 33.96 42.256 33.96 36.688C33.96 31.44 33.416 26.352 32.328 21.424C30.984 15.28 28.36 12.208 24.456 12.208C20.808 12.208 18.344 15.088 17.064 20.848C15.912 25.712 15.336 30.992 15.336 36.688C15.336 42.64 16.04 47.888 17.448 52.432C18.856 56.848 21.16 59.056 24.36 59.056ZM60.189 3.184C65.565 1.328 70.013 0.399998 73.533 0.399998C80.317 0.399998 85.853 2.224 90.141 5.872C94.237 9.392 96.285 13.968 96.285 19.6C96.285 27.408 92.317 32.56 84.381 35.056C88.989 36.08 92.573 38 95.133 40.816C97.693 43.632 98.973 47.056 98.973 51.088C98.973 57.616 96.221 62.736 90.717 66.448C86.429 69.392 81.373 70.896 75.549 70.96C75.293 70.96 74.909 70.96 74.397 70.96C70.173 70.96 65.917 70.512 61.629 69.616L57.405 64.336V58.48C62.397 59.376 66.429 59.824 69.501 59.824C79.293 59.824 84.157 56.912 84.093 51.088C84.093 48.08 82.877 45.648 80.445 43.792C78.781 42.512 76.829 41.648 74.589 41.2C72.413 40.688 68.989 40.4 64.317 40.336V29.104H75.357C77.405 29.104 79.005 28.432 80.157 27.088C81.373 25.744 81.981 23.984 81.981 21.808C81.981 16.112 78.429 13.264 71.325 13.264C68.445 13.264 64.733 13.968 60.189 15.376V3.184Z"/>
</mask>
<path d="M42.888 60.976L42.0375 60.4499L42.0369 60.451L42.888 60.976ZM6.408 61.264L5.55903 61.7924L5.56 61.794L6.408 61.264ZM6.408 10.96L7.27474 11.4588L7.27671 11.4553L6.408 10.96ZM44.328 14.128L45.2399 13.7176L45.2379 13.7133L44.328 14.128ZM31.848 51.952L30.8916 51.6598L30.8895 51.667L31.848 51.952ZM32.328 21.424L31.3511 21.6377L31.3515 21.6396L32.328 21.424ZM17.064 20.848L18.0372 21.0785L18.0402 21.0649L17.064 20.848ZM17.448 52.432L16.4928 52.728L16.4953 52.7358L17.448 52.432ZM47.648 36.592C47.648 46.5215 45.7496 54.4488 42.0375 60.4499L43.7385 61.5021C47.7064 55.0872 49.648 46.7585 49.648 36.592H47.648ZM42.0369 60.451C37.9919 67.0088 32.2313 70.248 24.648 70.248V72.248C32.9367 72.248 39.3361 68.6392 43.7391 61.501L42.0369 60.451ZM24.648 70.248C16.9847 70.248 11.229 67.0908 7.256 60.734L5.56 61.794C9.90698 68.7492 16.3113 72.248 24.648 72.248V70.248ZM7.25697 60.7356C3.48226 54.6713 1.552 46.649 1.552 36.592H-0.448C-0.448 46.887 1.52574 55.3127 5.55903 61.7924L7.25697 60.7356ZM1.552 36.592C1.552 26.4093 3.48144 18.0504 7.27473 11.4588L5.54127 10.4612C1.52656 17.4376 -0.448 26.1667 -0.448 36.592H1.552ZM7.27671 11.4553C11.2734 4.44576 16.9717 1.016 24.456 1.016V-0.984003C16.1963 -0.984003 9.86261 2.88223 5.53929 10.4647L7.27671 11.4553ZM24.456 1.016C28.7509 1.016 32.4395 2.13979 35.565 4.35933C38.6992 6.58505 41.3276 9.95613 43.4181 14.5427L45.2379 13.7133C43.0404 8.89186 40.2128 5.20695 36.723 2.72867C33.2245 0.244205 29.1211 -0.984003 24.456 -0.984003V1.016ZM43.4161 14.5384C46.2266 20.784 47.648 28.1268 47.648 36.592H49.648C49.648 27.9052 48.1894 20.272 45.2399 13.7176L43.4161 14.5384ZM24.36 60.056C26.3963 60.056 28.1661 59.3737 29.6083 58.0055C31.027 56.6595 32.0731 54.704 32.8065 52.237L30.8895 51.667C30.2149 53.936 29.309 55.5325 28.2317 56.5545C27.1779 57.5543 25.9077 58.056 24.36 58.056V60.056ZM32.8044 52.2442C34.2454 47.5281 34.96 42.34 34.96 36.688H32.96C32.96 42.172 32.2666 47.1599 30.8916 51.6598L32.8044 52.2442ZM34.96 36.688C34.96 31.3704 34.4087 26.21 33.3045 21.2084L31.3515 21.6396C32.4233 26.494 32.96 31.5096 32.96 36.688H34.96ZM33.3049 21.2103C32.6155 18.0586 31.5747 15.5745 30.1124 13.8625C28.618 12.113 26.712 11.208 24.456 11.208V13.208C26.104 13.208 27.462 13.839 28.5916 15.1615C29.7533 16.5215 30.6965 18.6454 31.3511 21.6377L33.3049 21.2103ZM24.456 11.208C22.327 11.208 20.5257 12.0658 19.1121 13.7179C17.7304 15.3329 16.7454 17.6718 16.0878 20.6311L18.0402 21.0649C18.6626 18.2642 19.5496 16.2831 20.6319 15.0181C21.6823 13.7902 22.937 13.208 24.456 13.208V11.208ZM16.0909 20.6175C14.9188 25.5667 14.336 30.9249 14.336 36.688H16.336C16.336 31.059 16.9052 25.8573 18.0371 21.0785L16.0909 20.6175ZM14.336 36.688C14.336 42.7163 15.0487 48.0676 16.4928 52.728L18.4032 52.136C17.0313 47.7084 16.336 42.5637 16.336 36.688H14.336ZM16.4953 52.7358C17.2286 55.0357 18.2254 56.862 19.5401 58.122C20.8788 59.4049 22.5029 60.056 24.36 60.056V58.056C23.0171 58.056 21.8892 57.6031 20.9239 56.678C19.9346 55.73 19.0754 54.2443 18.4007 52.1282L16.4953 52.7358ZM60.189 3.184L59.8627 2.23874L59.189 2.47132V3.184H60.189ZM90.141 5.872L90.7928 5.11357L90.789 5.11034L90.141 5.872ZM84.381 35.056L84.081 34.1021L80.5194 35.2223L84.1641 36.0322L84.381 35.056ZM95.133 40.816L94.3931 41.4887L95.133 40.816ZM90.717 66.448L90.1578 65.6189L90.151 65.6236L90.717 66.448ZM75.549 70.96V71.9601L75.56 71.9599L75.549 70.96ZM61.629 69.616L60.8481 70.2407L61.0727 70.5213L61.4245 70.5949L61.629 69.616ZM57.405 64.336H56.405V64.6868L56.6241 64.9607L57.405 64.336ZM57.405 58.48L57.5817 57.4957L56.405 57.2845V58.48H57.405ZM84.093 51.088H83.0929L83.0931 51.099L84.093 51.088ZM80.445 43.792L79.8353 44.5846L79.8383 44.587L80.445 43.792ZM74.589 41.2L74.36 42.1734L74.3764 42.1773L74.3929 42.1806L74.589 41.2ZM64.317 40.336H63.317V41.3224L64.3033 41.3359L64.317 40.336ZM64.317 29.104V28.104H63.317V29.104H64.317ZM80.157 27.088L79.4155 26.4171L79.4065 26.427L79.3977 26.4372L80.157 27.088ZM60.189 15.376H59.189V16.7328L60.485 16.3312L60.189 15.376ZM60.5153 4.12925C65.8427 2.29004 70.1711 1.4 73.533 1.4V-0.600002C69.8549 -0.600002 65.2873 0.365957 59.8627 2.23874L60.5153 4.12925ZM73.533 1.4C80.1304 1.4 85.4211 3.16951 89.493 6.63366L90.789 5.11034C86.2849 1.27848 80.5036 -0.600002 73.533 -0.600002V1.4ZM89.4892 6.63041C93.3536 9.95133 95.285 14.2452 95.285 19.6H97.285C97.285 13.6908 95.1204 8.83266 90.7928 5.11358L89.4892 6.63041ZM95.285 19.6C95.285 23.3289 94.3406 26.3418 92.5167 28.7098C90.6886 31.0835 87.9081 32.8984 84.081 34.1021L84.681 36.0099C88.7899 34.7176 91.9614 32.7085 94.1013 29.9302C96.2454 27.1462 97.285 23.679 97.285 19.6H95.285ZM84.1641 36.0322C88.6195 37.0223 92.0022 38.8587 94.3931 41.4887L95.8729 40.1433C93.1438 37.1413 89.3585 35.1377 84.5979 34.0798L84.1641 36.0322ZM94.3931 41.4887C96.7751 44.109 97.973 47.2886 97.973 51.088H99.973C99.973 46.8234 98.6109 43.155 95.8729 40.1433L94.3931 41.4887ZM97.973 51.088C97.973 57.2768 95.3919 62.089 90.1579 65.6189L91.2761 67.2771C97.0502 63.383 99.973 57.9552 99.973 51.088H97.973ZM90.151 65.6236C86.0457 68.4422 81.1883 69.898 75.538 69.9601L75.56 71.9599C81.5577 71.894 86.8123 70.3418 91.283 67.2724L90.151 65.6236ZM75.549 69.96C75.5485 69.96 75.548 69.96 75.5475 69.96C75.547 69.96 75.5465 69.96 75.546 69.96C75.5455 69.96 75.545 69.96 75.5445 69.96C75.544 69.96 75.5435 69.96 75.543 69.96C75.5425 69.96 75.542 69.96 75.5415 69.96C75.541 69.96 75.5405 69.96 75.5399 69.96C75.5394 69.96 75.5389 69.96 75.5384 69.96C75.5379 69.96 75.5374 69.96 75.5369 69.96C75.5364 69.96 75.5359 69.96 75.5354 69.96C75.5349 69.96 75.5344 69.96 75.5339 69.96C75.5333 69.96 75.5328 69.96 75.5323 69.96C75.5318 69.96 75.5313 69.96 75.5308 69.96C75.5303 69.96 75.5298 69.96 75.5293 69.96C75.5287 69.96 75.5282 69.96 75.5277 69.96C75.5272 69.96 75.5267 69.96 75.5262 69.96C75.5257 69.96 75.5251 69.96 75.5246 69.96C75.5241 69.96 75.5236 69.96 75.5231 69.96C75.5226 69.96 75.522 69.96 75.5215 69.96C75.521 69.96 75.5205 69.96 75.52 69.96C75.5195 69.96 75.5189 69.96 75.5184 69.96C75.5179 69.96 75.5174 69.96 75.5169 69.96C75.5163 69.96 75.5158 69.96 75.5153 69.96C75.5148 69.96 75.5143 69.96 75.5137 69.96C75.5132 69.96 75.5127 69.96 75.5122 69.96C75.5116 69.96 75.5111 69.96 75.5106 69.96C75.5101 69.96 75.5095 69.96 75.509 69.96C75.5085 69.96 75.508 69.96 75.5074 69.96C75.5069 69.96 75.5064 69.96 75.5059 69.96C75.5053 69.96 75.5048 69.96 75.5043 69.96C75.5037 69.96 75.5032 69.96 75.5027 69.96C75.5022 69.96 75.5016 69.96 75.5011 69.96C75.5006 69.96 75.5 69.96 75.4995 69.96C75.499 69.96 75.4984 69.96 75.4979 69.96C75.4974 69.96 75.4968 69.96 75.4963 69.96C75.4958 69.96 75.4952 69.96 75.4947 69.96C75.4942 69.96 75.4936 69.96 75.4931 69.96C75.4926 69.96 75.492 69.96 75.4915 69.96C75.491 69.96 75.4904 69.96 75.4899 69.96C75.4893 69.96 75.4888 69.96 75.4883 69.96C75.4877 69.96 75.4872 69.96 75.4867 69.96C75.4861 69.96 75.4856 69.96 75.485 69.96C75.4845 69.96 75.484 69.96 75.4834 69.96C75.4829 69.96 75.4823 69.96 75.4818 69.96C75.4813 69.96 75.4807 69.96 75.4802 69.96C75.4796 69.96 75.4791 69.96 75.4785 69.96C75.478 69.96 75.4774 69.96 75.4769 69.96C75.4764 69.96 75.4758 69.96 75.4753 69.96C75.4747 69.96 75.4742 69.96 75.4736 69.96C75.4731 69.96 75.4725 69.96 75.472 69.96C75.4714 69.96 75.4709 69.96 75.4703 69.96C75.4698 69.96 75.4692 69.96 75.4687 69.96C75.4681 69.96 75.4676 69.96 75.467 69.96C75.4665 69.96 75.4659 69.96 75.4654 69.96C75.4648 69.96 75.4643 69.96 75.4637 69.96C75.4632 69.96 75.4626 69.96 75.4621 69.96C75.4615 69.96 75.461 69.96 75.4604 69.96C75.4599 69.96 75.4593 69.96 75.4587 69.96C75.4582 69.96 75.4576 69.96 75.4571 69.96C75.4565 69.96 75.456 69.96 75.4554 69.96C75.4548 69.96 75.4543 69.96 75.4537 69.96C75.4532 69.96 75.4526 69.96 75.452 69.96C75.4515 69.96 75.4509 69.96 75.4504 69.96C75.4498 69.96 75.4492 69.96 75.4487 69.96C75.4481 69.96 75.4476 69.96 75.447 69.96C75.4464 69.96 75.4459 69.96 75.4453 69.96C75.4447 69.96 75.4442 69.96 75.4436 69.96C75.4431 69.96 75.4425 69.96 75.4419 69.96C75.4414 69.96 75.4408 69.96 75.4402 69.96C75.4397 69.96 75.4391 69.96 75.4385 69.96C75.438 69.96 75.4374 69.96 75.4368 69.96C75.4363 69.96 75.4357 69.96 75.4351 69.96C75.4345 69.96 75.434 69.96 75.4334 69.96C75.4328 69.96 75.4323 69.96 75.4317 69.96C75.4311 69.96 75.4305 69.96 75.43 69.96C75.4294 69.96 75.4288 69.96 75.4283 69.96C75.4277 69.96 75.4271 69.96 75.4265 69.96C75.426 69.96 75.4254 69.96 75.4248 69.96C75.4242 69.96 75.4237 69.96 75.4231 69.96C75.4225 69.96 75.4219 69.96 75.4214 69.96C75.4208 69.96 75.4202 69.96 75.4196 69.96C75.4191 69.96 75.4185 69.96 75.4179 69.96C75.4173 69.96 75.4167 69.96 75.4162 69.96C75.4156 69.96 75.415 69.96 75.4144 69.96C75.4138 69.96 75.4132 69.96 75.4127 69.96C75.4121 69.96 75.4115 69.96 75.4109 69.96C75.4103 69.96 75.4098 69.96 75.4092 69.96C75.4086 69.96 75.408 69.96 75.4074 69.96C75.4068 69.96 75.4062 69.96 75.4057 69.96C75.4051 69.96 75.4045 69.96 75.4039 69.96C75.4033 69.96 75.4027 69.96 75.4021 69.96C75.4016 69.96 75.401 69.96 75.4004 69.96C75.3998 69.96 75.3992 69.96 75.3986 69.96C75.398 69.96 75.3974 69.96 75.3968 69.96C75.3962 69.96 75.3957 69.96 75.3951 69.96C75.3945 69.96 75.3939 69.96 75.3933 69.96C75.3927 69.96 75.3921 69.96 75.3915 69.96C75.3909 69.96 75.3903 69.96 75.3897 69.96C75.3891 69.96 75.3885 69.96 75.3879 69.96C75.3873 69.96 75.3867 69.96 75.3861 69.96C75.3856 69.96 75.3849 69.96 75.3844 69.96C75.3838 69.96 75.3832 69.96 75.3826 69.96C75.382 69.96 75.3814 69.96 75.3808 69.96C75.3802 69.96 75.3796 69.96 75.379 69.96C75.3784 69.96 75.3778 69.96 75.3772 69.96C75.3766 69.96 75.376 69.96 75.3754 69.96C75.3747 69.96 75.3741 69.96 75.3735 69.96C75.3729 69.96 75.3723 69.96 75.3717 69.96C75.3711 69.96 75.3705 69.96 75.3699 69.96C75.3693 69.96 75.3687 69.96 75.3681 69.96C75.3675 69.96 75.3669 69.96 75.3663 69.96C75.3657 69.96 75.3651 69.96 75.3645 69.96C75.3638 69.96 75.3632 69.96 75.3626 69.96C75.362 69.96 75.3614 69.96 75.3608 69.96C75.3602 69.96 75.3596 69.96 75.359 69.96C75.3584 69.96 75.3577 69.96 75.3571 69.96C75.3565 69.96 75.3559 69.96 75.3553 69.96C75.3547 69.96 75.3541 69.96 75.3534 69.96C75.3528 69.96 75.3522 69.96 75.3516 69.96C75.351 69.96 75.3504 69.96 75.3498 69.96C75.3491 69.96 75.3485 69.96 75.3479 69.96C75.3473 69.96 75.3467 69.96 75.3461 69.96C75.3454 69.96 75.3448 69.96 75.3442 69.96C75.3436 69.96 75.343 69.96 75.3423 69.96C75.3417 69.96 75.3411 69.96 75.3405 69.96C75.3399 69.96 75.3392 69.96 75.3386 69.96C75.338 69.96 75.3374 69.96 75.3367 69.96C75.3361 69.96 75.3355 69.96 75.3349 69.96C75.3343 69.96 75.3336 69.96 75.333 69.96C75.3324 69.96 75.3317 69.96 75.3311 69.96C75.3305 69.96 75.3299 69.96 75.3292 69.96C75.3286 69.96 75.328 69.96 75.3274 69.96C75.3267 69.96 75.3261 69.96 75.3255 69.96C75.3249 69.96 75.3242 69.96 75.3236 69.96C75.323 69.96 75.3223 69.96 75.3217 69.96C75.3211 69.96 75.3204 69.96 75.3198 69.96C75.3192 69.96 75.3185 69.96 75.3179 69.96C75.3173 69.96 75.3166 69.96 75.316 69.96C75.3154 69.96 75.3147 69.96 75.3141 69.96C75.3135 69.96 75.3128 69.96 75.3122 69.96C75.3116 69.96 75.3109 69.96 75.3103 69.96C75.3097 69.96 75.309 69.96 75.3084 69.96C75.3077 69.96 75.3071 69.96 75.3065 69.96C75.3058 69.96 75.3052 69.96 75.3046 69.96C75.3039 69.96 75.3033 69.96 75.3026 69.96C75.302 69.96 75.3013 69.96 75.3007 69.96C75.3001 69.96 75.2994 69.96 75.2988 69.96C75.2981 69.96 75.2975 69.96 75.2968 69.96C75.2962 69.96 75.2956 69.96 75.2949 69.96C75.2943 69.96 75.2936 69.96 75.293 69.96C75.2923 69.96 75.2917 69.96 75.291 69.96C75.2904 69.96 75.2897 69.96 75.2891 69.96C75.2885 69.96 75.2878 69.96 75.2872 69.96C75.2865 69.96 75.2859 69.96 75.2852 69.96C75.2846 69.96 75.2839 69.96 75.2833 69.96C75.2826 69.96 75.282 69.96 75.2813 69.96C75.2807 69.96 75.28 69.96 75.2794 69.96C75.2787 69.96 75.278 69.96 75.2774 69.96C75.2767 69.96 75.2761 69.96 75.2754 69.96C75.2748 69.96 75.2741 69.96 75.2735 69.96C75.2728 69.96 75.2722 69.96 75.2715 69.96C75.2708 69.96 75.2702 69.96 75.2695 69.96C75.2689 69.96 75.2682 69.96 75.2676 69.96C75.2669 69.96 75.2662 69.96 75.2656 69.96C75.2649 69.96 75.2643 69.96 75.2636 69.96C75.2629 69.96 75.2623 69.96 75.2616 69.96C75.261 69.96 75.2603 69.96 75.2596 69.96C75.259 69.96 75.2583 69.96 75.2576 69.96C75.257 69.96 75.2563 69.96 75.2557 69.96C75.255 69.96 75.2543 69.96 75.2537 69.96C75.253 69.96 75.2523 69.96 75.2517 69.96C75.251 69.96 75.2503 69.96 75.2497 69.96C75.249 69.96 75.2483 69.96 75.2477 69.96C75.247 69.96 75.2463 69.96 75.2457 69.96C75.245 69.96 75.2443 69.96 75.2437 69.96C75.243 69.96 75.2423 69.96 75.2416 69.96C75.241 69.96 75.2403 69.96 75.2396 69.96C75.239 69.96 75.2383 69.96 75.2376 69.96C75.2369 69.96 75.2363 69.96 75.2356 69.96C75.2349 69.96 75.2342 69.96 75.2336 69.96C75.2329 69.96 75.2322 69.96 75.2315 69.96C75.2309 69.96 75.2302 69.96 75.2295 69.96C75.2288 69.96 75.2282 69.96 75.2275 69.96C75.2268 69.96 75.2261 69.96 75.2254 69.96C75.2248 69.96 75.2241 69.96 75.2234 69.96C75.2227 69.96 75.222 69.96 75.2214 69.96C75.2207 69.96 75.22 69.96 75.2193 69.96C75.2186 69.96 75.218 69.96 75.2173 69.96C75.2166 69.96 75.2159 69.96 75.2152 69.96C75.2145 69.96 75.2139 69.96 75.2132 69.96C75.2125 69.96 75.2118 69.96 75.2111 69.96C75.2104 69.96 75.2097 69.96 75.2091 69.96C75.2084 69.96 75.2077 69.96 75.207 69.96C75.2063 69.96 75.2056 69.96 75.2049 69.96C75.2042 69.96 75.2036 69.96 75.2029 69.96C75.2022 69.96 75.2015 69.96 75.2008 69.96C75.2001 69.96 75.1994 69.96 75.1987 69.96C75.198 69.96 75.1973 69.96 75.1967 69.96C75.196 69.96 75.1953 69.96 75.1946 69.96C75.1939 69.96 75.1932 69.96 75.1925 69.96C75.1918 69.96 75.1911 69.96 75.1904 69.96C75.1897 69.96 75.189 69.96 75.1883 69.96C75.1876 69.96 75.1869 69.96 75.1862 69.96C75.1855 69.96 75.1848 69.96 75.1841 69.96C75.1834 69.96 75.1827 69.96 75.182 69.96C75.1813 69.96 75.1806 69.96 75.1799 69.96C75.1792 69.96 75.1785 69.96 75.1778 69.96C75.1771 69.96 75.1764 69.96 75.1757 69.96C75.175 69.96 75.1743 69.96 75.1736 69.96C75.1729 69.96 75.1722 69.96 75.1715 69.96C75.1708 69.96 75.1701 69.96 75.1694 69.96C75.1687 69.96 75.168 69.96 75.1673 69.96C75.1666 69.96 75.1659 69.96 75.1652 69.96C75.1645 69.96 75.1637 69.96 75.163 69.96C75.1623 69.96 75.1616 69.96 75.1609 69.96C75.1602 69.96 75.1595 69.96 75.1588 69.96C75.1581 69.96 75.1574 69.96 75.1567 69.96C75.1559 69.96 75.1552 69.96 75.1545 69.96C75.1538 69.96 75.1531 69.96 75.1524 69.96C75.1517 69.96 75.151 69.96 75.1502 69.96C75.1495 69.96 75.1488 69.96 75.1481 69.96C75.1474 69.96 75.1467 69.96 75.146 69.96C75.1452 69.96 75.1445 69.96 75.1438 69.96C75.1431 69.96 75.1424 69.96 75.1417 69.96C75.1409 69.96 75.1402 69.96 75.1395 69.96C75.1388 69.96 75.1381 69.96 75.1373 69.96C75.1366 69.96 75.1359 69.96 75.1352 69.96C75.1345 69.96 75.1337 69.96 75.133 69.96C75.1323 69.96 75.1316 69.96 75.1309 69.96C75.1301 69.96 75.1294 69.96 75.1287 69.96C75.128 69.96 75.1272 69.96 75.1265 69.96C75.1258 69.96 75.1251 69.96 75.1243 69.96C75.1236 69.96 75.1229 69.96 75.1222 69.96C75.1214 69.96 75.1207 69.96 75.12 69.96C75.1192 69.96 75.1185 69.96 75.1178 69.96C75.1171 69.96 75.1163 69.96 75.1156 69.96C75.1149 69.96 75.1141 69.96 75.1134 69.96C75.1127 69.96 75.112 69.96 75.1112 69.96C75.1105 69.96 75.1098 69.96 75.109 69.96C75.1083 69.96 75.1076 69.96 75.1068 69.96C75.1061 69.96 75.1054 69.96 75.1046 69.96C75.1039 69.96 75.1032 69.96 75.1024 69.96C75.1017 69.96 75.101 69.96 75.1002 69.96C75.0995 69.96 75.0987 69.96 75.098 69.96C75.0973 69.96 75.0965 69.96 75.0958 69.96C75.0951 69.96 75.0943 69.96 75.0936 69.96C75.0928 69.96 75.0921 69.96 75.0914 69.96C75.0906 69.96 75.0899 69.96 75.0891 69.96C75.0884 69.96 75.0876 69.96 75.0869 69.96C75.0862 69.96 75.0854 69.96 75.0847 69.96C75.0839 69.96 75.0832 69.96 75.0825 69.96C75.0817 69.96 75.081 69.96 75.0802 69.96C75.0795 69.96 75.0787 69.96 75.078 69.96C75.0772 69.96 75.0765 69.96 75.0757 69.96C75.075 69.96 75.0742 69.96 75.0735 69.96C75.0727 69.96 75.072 69.96 75.0713 69.96C75.0705 69.96 75.0697 69.96 75.069 69.96C75.0683 69.96 75.0675 69.96 75.0667 69.96C75.066 69.96 75.0652 69.96 75.0645 69.96C75.0637 69.96 75.063 69.96 75.0622 69.96C75.0615 69.96 75.0607 69.96 75.06 69.96C75.0592 69.96 75.0585 69.96 75.0577 69.96C75.057 69.96 75.0562 69.96 75.0555 69.96C75.0547 69.96 75.0539 69.96 75.0532 69.96C75.0524 69.96 75.0517 69.96 75.0509 69.96C75.0501 69.96 75.0494 69.96 75.0486 69.96C75.0479 69.96 75.0471 69.96 75.0464 69.96C75.0456 69.96 75.0448 69.96 75.0441 69.96C75.0433 69.96 75.0425 69.96 75.0418 69.96C75.041 69.96 75.0403 69.96 75.0395 69.96C75.0387 69.96 75.038 69.96 75.0372 69.96C75.0365 69.96 75.0357 69.96 75.0349 69.96C75.0342 69.96 75.0334 69.96 75.0326 69.96C75.0319 69.96 75.0311 69.96 75.0303 69.96C75.0296 69.96 75.0288 69.96 75.028 69.96C75.0273 69.96 75.0265 69.96 75.0257 69.96C75.025 69.96 75.0242 69.96 75.0234 69.96C75.0226 69.96 75.0219 69.96 75.0211 69.96C75.0203 69.96 75.0196 69.96 75.0188 69.96C75.018 69.96 75.0173 69.96 75.0165 69.96C75.0157 69.96 75.0149 69.96 75.0142 69.96C75.0134 69.96 75.0126 69.96 75.0118 69.96C75.0111 69.96 75.0103 69.96 75.0095 69.96C75.0087 69.96 75.008 69.96 75.0072 69.96C75.0064 69.96 75.0056 69.96 75.0049 69.96C75.0041 69.96 75.0033 69.96 75.0025 69.96C75.0017 69.96 75.001 69.96 75.0002 69.96C74.9994 69.96 74.9986 69.96 74.9978 69.96C74.9971 69.96 74.9963 69.96 74.9955 69.96C74.9947 69.96 74.9939 69.96 74.9932 69.96C74.9924 69.96 74.9916 69.96 74.9908 69.96C74.99 69.96 74.9892 69.96 74.9885 69.96C74.9877 69.96 74.9869 69.96 74.9861 69.96C74.9853 69.96 74.9845 69.96 74.9837 69.96C74.983 69.96 74.9822 69.96 74.9814 69.96C74.9806 69.96 74.9798 69.96 74.979 69.96C74.9782 69.96 74.9774 69.96 74.9767 69.96C74.9759 69.96 74.9751 69.96 74.9743 69.96C74.9735 69.96 74.9727 69.96 74.9719 69.96C74.9711 69.96 74.9703 69.96 74.9695 69.96C74.9688 69.96 74.968 69.96 74.9672 69.96C74.9664 69.96 74.9656 69.96 74.9648 69.96C74.964 69.96 74.9632 69.96 74.9624 69.96C74.9616 69.96 74.9608 69.96 74.96 69.96C74.9592 69.96 74.9584 69.96 74.9576 69.96C74.9568 69.96 74.956 69.96 74.9552 69.96C74.9544 69.96 74.9536 69.96 74.9528 69.96C74.952 69.96 74.9512 69.96 74.9504 69.96C74.9496 69.96 74.9488 69.96 74.948 69.96C74.9472 69.96 74.9464 69.96 74.9456 69.96C74.9448 69.96 74.944 69.96 74.9432 69.96C74.9424 69.96 74.9416 69.96 74.9408 69.96C74.94 69.96 74.9392 69.96 74.9384 69.96C74.9376 69.96 74.9368 69.96 74.936 69.96C74.9352 69.96 74.9344 69.96 74.9336 69.96C74.9328 69.96 74.932 69.96 74.9312 69.96C74.9303 69.96 74.9295 69.96 74.9287 69.96C74.9279 69.96 74.9271 69.96 74.9263 69.96C74.9255 69.96 74.9247 69.96 74.9239 69.96C74.9231 69.96 74.9222 69.96 74.9214 69.96C74.9206 69.96 74.9198 69.96 74.919 69.96C74.9182 69.96 74.9174 69.96 74.9166 69.96C74.9157 69.96 74.9149 69.96 74.9141 69.96C74.9133 69.96 74.9125 69.96 74.9117 69.96C74.9109 69.96 74.91 69.96 74.9092 69.96C74.9084 69.96 74.9076 69.96 74.9068 69.96C74.906 69.96 74.9051 69.96 74.9043 69.96C74.9035 69.96 74.9027 69.96 74.9019 69.96C74.901 69.96 74.9002 69.96 74.8994 69.96C74.8986 69.96 74.8978 69.96 74.8969 69.96C74.8961 69.96 74.8953 69.96 74.8945 69.96C74.8937 69.96 74.8928 69.96 74.892 69.96C74.8912 69.96 74.8904 69.96 74.8895 69.96C74.8887 69.96 74.8879 69.96 74.8871 69.96C74.8862 69.96 74.8854 69.96 74.8846 69.96C74.8838 69.96 74.8829 69.96 74.8821 69.96C74.8813 69.96 74.8805 69.96 74.8796 69.96C74.8788 69.96 74.878 69.96 74.8771 69.96C74.8763 69.96 74.8755 69.96 74.8746 69.96C74.8738 69.96 74.873 69.96 74.8722 69.96C74.8713 69.96 74.8705 69.96 74.8697 69.96C74.8688 69.96 74.868 69.96 74.8672 69.96C74.8663 69.96 74.8655 69.96 74.8647 69.96C74.8638 69.96 74.863 69.96 74.8622 69.96C74.8613 69.96 74.8605 69.96 74.8597 69.96C74.8588 69.96 74.858 69.96 74.8571 69.96C74.8563 69.96 74.8555 69.96 74.8546 69.96C74.8538 69.96 74.853 69.96 74.8521 69.96C74.8513 69.96 74.8504 69.96 74.8496 69.96C74.8488 69.96 74.8479 69.96 74.8471 69.96C74.8462 69.96 74.8454 69.96 74.8446 69.96C74.8437 69.96 74.8429 69.96 74.842 69.96C74.8412 69.96 74.8403 69.96 74.8395 69.96C74.8387 69.96 74.8378 69.96 74.837 69.96C74.8361 69.96 74.8353 69.96 74.8344 69.96C74.8336 69.96 74.8327 69.96 74.8319 69.96C74.831 69.96 74.8302 69.96 74.8294 69.96C74.8285 69.96 74.8277 69.96 74.8268 69.96C74.826 69.96 74.8251 69.96 74.8243 69.96C74.8234 69.96 74.8226 69.96 74.8217 69.96C74.8209 69.96 74.82 69.96 74.8192 69.96C74.8183 69.96 74.8175 69.96 74.8166 69.96C74.8158 69.96 74.8149 69.96 74.814 69.96C74.8132 69.96 74.8123 69.96 74.8115 69.96C74.8106 69.96 74.8098 69.96 74.8089 69.96C74.8081 69.96 74.8072 69.96 74.8064 69.96C74.8055 69.96 74.8046 69.96 74.8038 69.96C74.8029 69.96 74.8021 69.96 74.8012 69.96C74.8003 69.96 74.7995 69.96 74.7986 69.96C74.7978 69.96 74.7969 69.96 74.796 69.96C74.7952 69.96 74.7943 69.96 74.7935 69.96C74.7926 69.96 74.7917 69.96 74.7909 69.96C74.79 69.96 74.7892 69.96 74.7883 69.96C74.7874 69.96 74.7866 69.96 74.7857 69.96C74.7848 69.96 74.784 69.96 74.7831 69.96C74.7822 69.96 74.7814 69.96 74.7805 69.96C74.7796 69.96 74.7788 69.96 74.7779 69.96C74.777 69.96 74.7762 69.96 74.7753 69.96C74.7744 69.96 74.7736 69.96 74.7727 69.96C74.7718 69.96 74.771 69.96 74.7701 69.96C74.7692 69.96 74.7683 69.96 74.7675 69.96C74.7666 69.96 74.7657 69.96 74.7649 69.96C74.764 69.96 74.7631 69.96 74.7622 69.96C74.7614 69.96 74.7605 69.96 74.7596 69.96C74.7588 69.96 74.7579 69.96 74.757 69.96C74.7561 69.96 74.7552 69.96 74.7544 69.96C74.7535 69.96 74.7526 69.96 74.7517 69.96C74.7509 69.96 74.75 69.96 74.7491 69.96C74.7482 69.96 74.7474 69.96 74.7465 69.96C74.7456 69.96 74.7447 69.96 74.7438 69.96C74.743 69.96 74.7421 69.96 74.7412 69.96C74.7403 69.96 74.7394 69.96 74.7386 69.96C74.7377 69.96 74.7368 69.96 74.7359 69.96C74.735 69.96 74.7341 69.96 74.7333 69.96C74.7324 69.96 74.7315 69.96 74.7306 69.96C74.7297 69.96 74.7288 69.96 74.728 69.96C74.7271 69.96 74.7262 69.96 74.7253 69.96C74.7244 69.96 74.7235 69.96 74.7226 69.96C74.7217 69.96 74.7209 69.96 74.72 69.96C74.7191 69.96 74.7182 69.96 74.7173 69.96C74.7164 69.96 74.7155 69.96 74.7146 69.96C74.7137 69.96 74.7128 69.96 74.712 69.96C74.7111 69.96 74.7102 69.96 74.7093 69.96C74.7084 69.96 74.7075 69.96 74.7066 69.96C74.7057 69.96 74.7048 69.96 74.7039 69.96C74.703 69.96 74.7021 69.96 74.7012 69.96C74.7003 69.96 74.6994 69.96 74.6985 69.96C74.6976 69.96 74.6967 69.96 74.6959 69.96C74.695 69.96 74.6941 69.96 74.6932 69.96C74.6923 69.96 74.6914 69.96 74.6905 69.96C74.6896 69.96 74.6887 69.96 74.6878 69.96C74.6869 69.96 74.686 69.96 74.6851 69.96C74.6842 69.96 74.6833 69.96 74.6824 69.96C74.6814 69.96 74.6805 69.96 74.6796 69.96C74.6787 69.96 74.6778 69.96 74.6769 69.96C74.676 69.96 74.6751 69.96 74.6742 69.96C74.6733 69.96 74.6724 69.96 74.6715 69.96C74.6706 69.96 74.6697 69.96 74.6688 69.96C74.6679 69.96 74.667 69.96 74.6661 69.96C74.6651 69.96 74.6642 69.96 74.6633 69.96C74.6624 69.96 74.6615 69.96 74.6606 69.96C74.6597 69.96 74.6588 69.96 74.6579 69.96C74.657 69.96 74.656 69.96 74.6551 69.96C74.6542 69.96 74.6533 69.96 74.6524 69.96C74.6515 69.96 74.6506 69.96 74.6497 69.96C74.6487 69.96 74.6478 69.96 74.6469 69.96C74.646 69.96 74.6451 69.96 74.6442 69.96C74.6432 69.96 74.6423 69.96 74.6414 69.96C74.6405 69.96 74.6396 69.96 74.6387 69.96C74.6377 69.96 74.6368 69.96 74.6359 69.96C74.635 69.96 74.6341 69.96 74.6331 69.96C74.6322 69.96 74.6313 69.96 74.6304 69.96C74.6295 69.96 74.6285 69.96 74.6276 69.96C74.6267 69.96 74.6258 69.96 74.6249 69.96C74.6239 69.96 74.623 69.96 74.6221 69.96C74.6212 69.96 74.6202 69.96 74.6193 69.96C74.6184 69.96 74.6175 69.96 74.6165 69.96C74.6156 69.96 74.6147 69.96 74.6138 69.96C74.6128 69.96 74.6119 69.96 74.611 69.96C74.6101 69.96 74.6091 69.96 74.6082 69.96C74.6073 69.96 74.6063 69.96 74.6054 69.96C74.6045 69.96 74.6035 69.96 74.6026 69.96C74.6017 69.96 74.6008 69.96 74.5998 69.96C74.5989 69.96 74.598 69.96 74.597 69.96C74.5961 69.96 74.5952 69.96 74.5942 69.96C74.5933 69.96 74.5924 69.96 74.5914 69.96C74.5905 69.96 74.5896 69.96 74.5886 69.96C74.5877 69.96 74.5867 69.96 74.5858 69.96C74.5849 69.96 74.5839 69.96 74.583 69.96C74.5821 69.96 74.5811 69.96 74.5802 69.96C74.5792 69.96 74.5783 69.96 74.5774 69.96C74.5764 69.96 74.5755 69.96 74.5745 69.96C74.5736 69.96 74.5727 69.96 74.5717 69.96C74.5708 69.96 74.5698 69.96 74.5689 69.96C74.568 69.96 74.567 69.96 74.5661 69.96C74.5651 69.96 74.5642 69.96 74.5632 69.96C74.5623 69.96 74.5614 69.96 74.5604 69.96C74.5595 69.96 74.5585 69.96 74.5576 69.96C74.5566 69.96 74.5557 69.96 74.5547 69.96C74.5538 69.96 74.5528 69.96 74.5519 69.96C74.5509 69.96 74.55 69.96 74.549 69.96C74.5481 69.96 74.5471 69.96 74.5462 69.96C74.5452 69.96 74.5443 69.96 74.5433 69.96C74.5424 69.96 74.5414 69.96 74.5405 69.96C74.5395 69.96 74.5386 69.96 74.5376 69.96C74.5367 69.96 74.5357 69.96 74.5348 69.96C74.5338 69.96 74.5329 69.96 74.5319 69.96C74.5309 69.96 74.53 69.96 74.529 69.96C74.5281 69.96 74.5271 69.96 74.5262 69.96C74.5252 69.96 74.5243 69.96 74.5233 69.96C74.5223 69.96 74.5214 69.96 74.5204 69.96C74.5195 69.96 74.5185 69.96 74.5175 69.96C74.5166 69.96 74.5156 69.96 74.5147 69.96C74.5137 69.96 74.5127 69.96 74.5118 69.96C74.5108 69.96 74.5098 69.96 74.5089 69.96C74.5079 69.96 74.507 69.96 74.506 69.96C74.505 69.96 74.5041 69.96 74.5031 69.96C74.5021 69.96 74.5012 69.96 74.5002 69.96C74.4992 69.96 74.4983 69.96 74.4973 69.96C74.4963 69.96 74.4954 69.96 74.4944 69.96C74.4934 69.96 74.4925 69.96 74.4915 69.96C74.4905 69.96 74.4896 69.96 74.4886 69.96C74.4876 69.96 74.4867 69.96 74.4857 69.96C74.4847 69.96 74.4837 69.96 74.4828 69.96C74.4818 69.96 74.4808 69.96 74.4799 69.96C74.4789 69.96 74.4779 69.96 74.4769 69.96C74.476 69.96 74.475 69.96 74.474 69.96C74.473 69.96 74.4721 69.96 74.4711 69.96C74.4701 69.96 74.4691 69.96 74.4682 69.96C74.4672 69.96 74.4662 69.96 74.4652 69.96C74.4642 69.96 74.4633 69.96 74.4623 69.96C74.4613 69.96 74.4603 69.96 74.4594 69.96C74.4584 69.96 74.4574 69.96 74.4564 69.96C74.4554 69.96 74.4545 69.96 74.4535 69.96C74.4525 69.96 74.4515 69.96 74.4505 69.96C74.4495 69.96 74.4486 69.96 74.4476 69.96C74.4466 69.96 74.4456 69.96 74.4446 69.96C74.4436 69.96 74.4427 69.96 74.4417 69.96C74.4407 69.96 74.4397 69.96 74.4387 69.96C74.4377 69.96 74.4367 69.96 74.4358 69.96C74.4348 69.96 74.4338 69.96 74.4328 69.96C74.4318 69.96 74.4308 69.96 74.4298 69.96C74.4288 69.96 74.4278 69.96 74.4269 69.96C74.4259 69.96 74.4249 69.96 74.4239 69.96C74.4229 69.96 74.4219 69.96 74.4209 69.96C74.4199 69.96 74.4189 69.96 74.4179 69.96C74.4169 69.96 74.4159 69.96 74.4149 69.96C74.414 69.96 74.413 69.96 74.412 69.96C74.411 69.96 74.41 69.96 74.409 69.96C74.408 69.96 74.407 69.96 74.406 69.96C74.405 69.96 74.404 69.96 74.403 69.96C74.402 69.96 74.401 69.96 74.4 69.96C74.399 69.96 74.398 69.96 74.397 69.96V71.96C74.398 71.96 74.399 71.96 74.4 71.96C74.401 71.96 74.402 71.96 74.403 71.96C74.404 71.96 74.405 71.96 74.406 71.96C74.407 71.96 74.408 71.96 74.409 71.96C74.41 71.96 74.411 71.96 74.412 71.96C74.413 71.96 74.414 71.96 74.4149 71.96C74.4159 71.96 74.4169 71.96 74.4179 71.96C74.4189 71.96 74.4199 71.96 74.4209 71.96C74.4219 71.96 74.4229 71.96 74.4239 71.96C74.4249 71.96 74.4259 71.96 74.4269 71.96C74.4278 71.96 74.4288 71.96 74.4298 71.96C74.4308 71.96 74.4318 71.96 74.4328 71.96C74.4338 71.96 74.4348 71.96 74.4358 71.96C74.4367 71.96 74.4377 71.96 74.4387 71.96C74.4397 71.96 74.4407 71.96 74.4417 71.96C74.4427 71.96 74.4436 71.96 74.4446 71.96C74.4456 71.96 74.4466 71.96 74.4476 71.96C74.4486 71.96 74.4495 71.96 74.4505 71.96C74.4515 71.96 74.4525 71.96 74.4535 71.96C74.4545 71.96 74.4554 71.96 74.4564 71.96C74.4574 71.96 74.4584 71.96 74.4594 71.96C74.4603 71.96 74.4613 71.96 74.4623 71.96C74.4633 71.96 74.4642 71.96 74.4652 71.96C74.4662 71.96 74.4672 71.96 74.4682 71.96C74.4691 71.96 74.4701 71.96 74.4711 71.96C74.4721 71.96 74.473 71.96 74.474 71.96C74.475 71.96 74.476 71.96 74.4769 71.96C74.4779 71.96 74.4789 71.96 74.4799 71.96C74.4808 71.96 74.4818 71.96 74.4828 71.96C74.4837 71.96 74.4847 71.96 74.4857 71.96C74.4867 71.96 74.4876 71.96 74.4886 71.96C74.4896 71.96 74.4905 71.96 74.4915 71.96C74.4925 71.96 74.4934 71.96 74.4944 71.96C74.4954 71.96 74.4963 71.96 74.4973 71.96C74.4983 71.96 74.4992 71.96 74.5002 71.96C74.5012 71.96 74.5021 71.96 74.5031 71.96C74.5041 71.96 74.505 71.96 74.506 71.96C74.507 71.96 74.5079 71.96 74.5089 71.96C74.5098 71.96 74.5108 71.96 74.5118 71.96C74.5127 71.96 74.5137 71.96 74.5147 71.96C74.5156 71.96 74.5166 71.96 74.5175 71.96C74.5185 71.96 74.5195 71.96 74.5204 71.96C74.5214 71.96 74.5223 71.96 74.5233 71.96C74.5243 71.96 74.5252 71.96 74.5262 71.96C74.5271 71.96 74.5281 71.96 74.529 71.96C74.53 71.96 74.5309 71.96 74.5319 71.96C74.5329 71.96 74.5338 71.96 74.5348 71.96C74.5357 71.96 74.5367 71.96 74.5376 71.96C74.5386 71.96 74.5395 71.96 74.5405 71.96C74.5414 71.96 74.5424 71.96 74.5433 71.96C74.5443 71.96 74.5452 71.96 74.5462 71.96C74.5471 71.96 74.5481 71.96 74.549 71.96C74.55 71.96 74.5509 71.96 74.5519 71.96C74.5528 71.96 74.5538 71.96 74.5547 71.96C74.5557 71.96 74.5566 71.96 74.5576 71.96C74.5585 71.96 74.5595 71.96 74.5604 71.96C74.5614 71.96 74.5623 71.96 74.5632 71.96C74.5642 71.96 74.5651 71.96 74.5661 71.96C74.567 71.96 74.568 71.96 74.5689 71.96C74.5698 71.96 74.5708 71.96 74.5717 71.96C74.5727 71.96 74.5736 71.96 74.5745 71.96C74.5755 71.96 74.5764 71.96 74.5774 71.96C74.5783 71.96 74.5792 71.96 74.5802 71.96C74.5811 71.96 74.5821 71.96 74.583 71.96C74.5839 71.96 74.5849 71.96 74.5858 71.96C74.5867 71.96 74.5877 71.96 74.5886 71.96C74.5896 71.96 74.5905 71.96 74.5914 71.96C74.5924 71.96 74.5933 71.96 74.5942 71.96C74.5952 71.96 74.5961 71.96 74.597 71.96C74.598 71.96 74.5989 71.96 74.5998 71.96C74.6008 71.96 74.6017 71.96 74.6026 71.96C74.6035 71.96 74.6045 71.96 74.6054 71.96C74.6063 71.96 74.6073 71.96 74.6082 71.96C74.6091 71.96 74.6101 71.96 74.611 71.96C74.6119 71.96 74.6128 71.96 74.6138 71.96C74.6147 71.96 74.6156 71.96 74.6165 71.96C74.6175 71.96 74.6184 71.96 74.6193 71.96C74.6202 71.96 74.6212 71.96 74.6221 71.96C74.623 71.96 74.6239 71.96 74.6249 71.96C74.6258 71.96 74.6267 71.96 74.6276 71.96C74.6285 71.96 74.6295 71.96 74.6304 71.96C74.6313 71.96 74.6322 71.96 74.6331 71.96C74.6341 71.96 74.635 71.96 74.6359 71.96C74.6368 71.96 74.6377 71.96 74.6387 71.96C74.6396 71.96 74.6405 71.96 74.6414 71.96C74.6423 71.96 74.6432 71.96 74.6442 71.96C74.6451 71.96 74.646 71.96 74.6469 71.96C74.6478 71.96 74.6487 71.96 74.6497 71.96C74.6506 71.96 74.6515 71.96 74.6524 71.96C74.6533 71.96 74.6542 71.96 74.6551 71.96C74.656 71.96 74.657 71.96 74.6579 71.96C74.6588 71.96 74.6597 71.96 74.6606 71.96C74.6615 71.96 74.6624 71.96 74.6633 71.96C74.6642 71.96 74.6651 71.96 74.6661 71.96C74.667 71.96 74.6679 71.96 74.6688 71.96C74.6697 71.96 74.6706 71.96 74.6715 71.96C74.6724 71.96 74.6733 71.96 74.6742 71.96C74.6751 71.96 74.676 71.96 74.6769 71.96C74.6778 71.96 74.6787 71.96 74.6796 71.96C74.6805 71.96 74.6814 71.96 74.6824 71.96C74.6833 71.96 74.6842 71.96 74.6851 71.96C74.686 71.96 74.6869 71.96 74.6878 71.96C74.6887 71.96 74.6896 71.96 74.6905 71.96C74.6914 71.96 74.6923 71.96 74.6932 71.96C74.6941 71.96 74.695 71.96 74.6959 71.96C74.6967 71.96 74.6976 71.96 74.6985 71.96C74.6994 71.96 74.7003 71.96 74.7012 71.96C74.7021 71.96 74.703 71.96 74.7039 71.96C74.7048 71.96 74.7057 71.96 74.7066 71.96C74.7075 71.96 74.7084 71.96 74.7093 71.96C74.7102 71.96 74.7111 71.96 74.712 71.96C74.7128 71.96 74.7137 71.96 74.7146 71.96C74.7155 71.96 74.7164 71.96 74.7173 71.96C74.7182 71.96 74.7191 71.96 74.72 71.96C74.7209 71.96 74.7217 71.96 74.7226 71.96C74.7235 71.96 74.7244 71.96 74.7253 71.96C74.7262 71.96 74.7271 71.96 74.728 71.96C74.7288 71.96 74.7297 71.96 74.7306 71.96C74.7315 71.96 74.7324 71.96 74.7333 71.96C74.7341 71.96 74.735 71.96 74.7359 71.96C74.7368 71.96 74.7377 71.96 74.7386 71.96C74.7394 71.96 74.7403 71.96 74.7412 71.96C74.7421 71.96 74.743 71.96 74.7438 71.96C74.7447 71.96 74.7456 71.96 74.7465 71.96C74.7474 71.96 74.7482 71.96 74.7491 71.96C74.75 71.96 74.7509 71.96 74.7517 71.96C74.7526 71.96 74.7535 71.96 74.7544 71.96C74.7552 71.96 74.7561 71.96 74.757 71.96C74.7579 71.96 74.7588 71.96 74.7596 71.96C74.7605 71.96 74.7614 71.96 74.7622 71.96C74.7631 71.96 74.764 71.96 74.7649 71.96C74.7657 71.96 74.7666 71.96 74.7675 71.96C74.7683 71.96 74.7692 71.96 74.7701 71.96C74.771 71.96 74.7718 71.96 74.7727 71.96C74.7736 71.96 74.7744 71.96 74.7753 71.96C74.7762 71.96 74.777 71.96 74.7779 71.96C74.7788 71.96 74.7796 71.96 74.7805 71.96C74.7814 71.96 74.7822 71.96 74.7831 71.96C74.784 71.96 74.7848 71.96 74.7857 71.96C74.7866 71.96 74.7874 71.96 74.7883 71.96C74.7892 71.96 74.79 71.96 74.7909 71.96C74.7917 71.96 74.7926 71.96 74.7935 71.96C74.7943 71.96 74.7952 71.96 74.796 71.96C74.7969 71.96 74.7978 71.96 74.7986 71.96C74.7995 71.96 74.8003 71.96 74.8012 71.96C74.8021 71.96 74.8029 71.96 74.8038 71.96C74.8046 71.96 74.8055 71.96 74.8064 71.96C74.8072 71.96 74.8081 71.96 74.8089 71.96C74.8098 71.96 74.8106 71.96 74.8115 71.96C74.8123 71.96 74.8132 71.96 74.814 71.96C74.8149 71.96 74.8158 71.96 74.8166 71.96C74.8175 71.96 74.8183 71.96 74.8192 71.96C74.82 71.96 74.8209 71.96 74.8217 71.96C74.8226 71.96 74.8234 71.96 74.8243 71.96C74.8251 71.96 74.826 71.96 74.8268 71.96C74.8277 71.96 74.8285 71.96 74.8294 71.96C74.8302 71.96 74.831 71.96 74.8319 71.96C74.8327 71.96 74.8336 71.96 74.8344 71.96C74.8353 71.96 74.8361 71.96 74.837 71.96C74.8378 71.96 74.8387 71.96 74.8395 71.96C74.8403 71.96 74.8412 71.96 74.842 71.96C74.8429 71.96 74.8437 71.96 74.8446 71.96C74.8454 71.96 74.8462 71.96 74.8471 71.96C74.8479 71.96 74.8488 71.96 74.8496 71.96C74.8504 71.96 74.8513 71.96 74.8521 71.96C74.853 71.96 74.8538 71.96 74.8546 71.96C74.8555 71.96 74.8563 71.96 74.8571 71.96C74.858 71.96 74.8588 71.96 74.8597 71.96C74.8605 71.96 74.8613 71.96 74.8622 71.96C74.863 71.96 74.8638 71.96 74.8647 71.96C74.8655 71.96 74.8663 71.96 74.8672 71.96C74.868 71.96 74.8688 71.96 74.8697 71.96C74.8705 71.96 74.8713 71.96 74.8722 71.96C74.873 71.96 74.8738 71.96 74.8746 71.96C74.8755 71.96 74.8763 71.96 74.8771 71.96C74.878 71.96 74.8788 71.96 74.8796 71.96C74.8805 71.96 74.8813 71.96 74.8821 71.96C74.8829 71.96 74.8838 71.96 74.8846 71.96C74.8854 71.96 74.8862 71.96 74.8871 71.96C74.8879 71.96 74.8887 71.96 74.8895 71.96C74.8904 71.96 74.8912 71.96 74.892 71.96C74.8928 71.96 74.8937 71.96 74.8945 71.96C74.8953 71.96 74.8961 71.96 74.8969 71.96C74.8978 71.96 74.8986 71.96 74.8994 71.96C74.9002 71.96 74.901 71.96 74.9019 71.96C74.9027 71.96 74.9035 71.96 74.9043 71.96C74.9051 71.96 74.906 71.96 74.9068 71.96C74.9076 71.96 74.9084 71.96 74.9092 71.96C74.91 71.96 74.9109 71.96 74.9117 71.96C74.9125 71.96 74.9133 71.96 74.9141 71.96C74.9149 71.96 74.9157 71.96 74.9166 71.96C74.9174 71.96 74.9182 71.96 74.919 71.96C74.9198 71.96 74.9206 71.96 74.9214 71.96C74.9222 71.96 74.9231 71.96 74.9239 71.96C74.9247 71.96 74.9255 71.96 74.9263 71.96C74.9271 71.96 74.9279 71.96 74.9287 71.96C74.9295 71.96 74.9303 71.96 74.9312 71.96C74.932 71.96 74.9328 71.96 74.9336 71.96C74.9344 71.96 74.9352 71.96 74.936 71.96C74.9368 71.96 74.9376 71.96 74.9384 71.96C74.9392 71.96 74.94 71.96 74.9408 71.96C74.9416 71.96 74.9424 71.96 74.9432 71.96C74.944 71.96 74.9448 71.96 74.9456 71.96C74.9464 71.96 74.9472 71.96 74.948 71.96C74.9488 71.96 74.9496 71.96 74.9504 71.96C74.9512 71.96 74.952 71.96 74.9528 71.96C74.9536 71.96 74.9544 71.96 74.9552 71.96C74.956 71.96 74.9568 71.96 74.9576 71.96C74.9584 71.96 74.9592 71.96 74.96 71.96C74.9608 71.96 74.9616 71.96 74.9624 71.96C74.9632 71.96 74.964 71.96 74.9648 71.96C74.9656 71.96 74.9664 71.96 74.9672 71.96C74.968 71.96 74.9688 71.96 74.9695 71.96C74.9703 71.96 74.9711 71.96 74.9719 71.96C74.9727 71.96 74.9735 71.96 74.9743 71.96C74.9751 71.96 74.9759 71.96 74.9767 71.96C74.9774 71.96 74.9782 71.96 74.979 71.96C74.9798 71.96 74.9806 71.96 74.9814 71.96C74.9822 71.96 74.983 71.96 74.9837 71.96C74.9845 71.96 74.9853 71.96 74.9861 71.96C74.9869 71.96 74.9877 71.96 74.9885 71.96C74.9892 71.96 74.99 71.96 74.9908 71.96C74.9916 71.96 74.9924 71.96 74.9932 71.96C74.9939 71.96 74.9947 71.96 74.9955 71.96C74.9963 71.96 74.9971 71.96 74.9978 71.96C74.9986 71.96 74.9994 71.96 75.0002 71.96C75.001 71.96 75.0017 71.96 75.0025 71.96C75.0033 71.96 75.0041 71.96 75.0049 71.96C75.0056 71.96 75.0064 71.96 75.0072 71.96C75.008 71.96 75.0087 71.96 75.0095 71.96C75.0103 71.96 75.0111 71.96 75.0118 71.96C75.0126 71.96 75.0134 71.96 75.0142 71.96C75.0149 71.96 75.0157 71.96 75.0165 71.96C75.0173 71.96 75.018 71.96 75.0188 71.96C75.0196 71.96 75.0203 71.96 75.0211 71.96C75.0219 71.96 75.0226 71.96 75.0234 71.96C75.0242 71.96 75.025 71.96 75.0257 71.96C75.0265 71.96 75.0273 71.96 75.028 71.96C75.0288 71.96 75.0296 71.96 75.0303 71.96C75.0311 71.96 75.0319 71.96 75.0326 71.96C75.0334 71.96 75.0342 71.96 75.0349 71.96C75.0357 71.96 75.0365 71.96 75.0372 71.96C75.038 71.96 75.0387 71.96 75.0395 71.96C75.0403 71.96 75.041 71.96 75.0418 71.96C75.0425 71.96 75.0433 71.96 75.0441 71.96C75.0448 71.96 75.0456 71.96 75.0464 71.96C75.0471 71.96 75.0479 71.96 75.0486 71.96C75.0494 71.96 75.0501 71.96 75.0509 71.96C75.0517 71.96 75.0524 71.96 75.0532 71.96C75.0539 71.96 75.0547 71.96 75.0555 71.96C75.0562 71.96 75.057 71.96 75.0577 71.96C75.0585 71.96 75.0592 71.96 75.06 71.96C75.0607 71.96 75.0615 71.96 75.0622 71.96C75.063 71.96 75.0637 71.96 75.0645 71.96C75.0652 71.96 75.066 71.96 75.0667 71.96C75.0675 71.96 75.0683 71.96 75.069 71.96C75.0697 71.96 75.0705 71.96 75.0713 71.96C75.072 71.96 75.0727 71.96 75.0735 71.96C75.0742 71.96 75.075 71.96 75.0757 71.96C75.0765 71.96 75.0772 71.96 75.078 71.96C75.0787 71.96 75.0795 71.96 75.0802 71.96C75.081 71.96 75.0817 71.96 75.0825 71.96C75.0832 71.96 75.0839 71.96 75.0847 71.96C75.0854 71.96 75.0862 71.96 75.0869 71.96C75.0876 71.96 75.0884 71.96 75.0891 71.96C75.0899 71.96 75.0906 71.96 75.0914 71.96C75.0921 71.96 75.0928 71.96 75.0936 71.96C75.0943 71.96 75.0951 71.96 75.0958 71.96C75.0965 71.96 75.0973 71.96 75.098 71.96C75.0987 71.96 75.0995 71.96 75.1002 71.96C75.101 71.96 75.1017 71.96 75.1024 71.96C75.1032 71.96 75.1039 71.96 75.1046 71.96C75.1054 71.96 75.1061 71.96 75.1068 71.96C75.1076 71.96 75.1083 71.96 75.109 71.96C75.1098 71.96 75.1105 71.96 75.1112 71.96C75.112 71.96 75.1127 71.96 75.1134 71.96C75.1141 71.96 75.1149 71.96 75.1156 71.96C75.1163 71.96 75.1171 71.96 75.1178 71.96C75.1185 71.96 75.1192 71.96 75.12 71.96C75.1207 71.96 75.1214 71.96 75.1222 71.96C75.1229 71.96 75.1236 71.96 75.1243 71.96C75.1251 71.96 75.1258 71.96 75.1265 71.96C75.1272 71.96 75.128 71.96 75.1287 71.96C75.1294 71.96 75.1301 71.96 75.1309 71.96C75.1316 71.96 75.1323 71.96 75.133 71.96C75.1337 71.96 75.1345 71.96 75.1352 71.96C75.1359 71.96 75.1366 71.96 75.1373 71.96C75.1381 71.96 75.1388 71.96 75.1395 71.96C75.1402 71.96 75.1409 71.96 75.1417 71.96C75.1424 71.96 75.1431 71.96 75.1438 71.96C75.1445 71.96 75.1452 71.96 75.146 71.96C75.1467 71.96 75.1474 71.96 75.1481 71.96C75.1488 71.96 75.1495 71.96 75.1502 71.96C75.151 71.96 75.1517 71.96 75.1524 71.96C75.1531 71.96 75.1538 71.96 75.1545 71.96C75.1552 71.96 75.1559 71.96 75.1567 71.96C75.1574 71.96 75.1581 71.96 75.1588 71.96C75.1595 71.96 75.1602 71.96 75.1609 71.96C75.1616 71.96 75.1623 71.96 75.163 71.96C75.1637 71.96 75.1645 71.96 75.1652 71.96C75.1659 71.96 75.1666 71.96 75.1673 71.96C75.168 71.96 75.1687 71.96 75.1694 71.96C75.1701 71.96 75.1708 71.96 75.1715 71.96C75.1722 71.96 75.1729 71.96 75.1736 71.96C75.1743 71.96 75.175 71.96 75.1757 71.96C75.1764 71.96 75.1771 71.96 75.1778 71.96C75.1785 71.96 75.1792 71.96 75.1799 71.96C75.1806 71.96 75.1813 71.96 75.182 71.96C75.1827 71.96 75.1834 71.96 75.1841 71.96C75.1848 71.96 75.1855 71.96 75.1862 71.96C75.1869 71.96 75.1876 71.96 75.1883 71.96C75.189 71.96 75.1897 71.96 75.1904 71.96C75.1911 71.96 75.1918 71.96 75.1925 71.96C75.1932 71.96 75.1939 71.96 75.1946 71.96C75.1953 71.96 75.196 71.96 75.1967 71.96C75.1973 71.96 75.198 71.96 75.1987 71.96C75.1994 71.96 75.2001 71.96 75.2008 71.96C75.2015 71.96 75.2022 71.96 75.2029 71.96C75.2036 71.96 75.2042 71.96 75.2049 71.96C75.2056 71.96 75.2063 71.96 75.207 71.96C75.2077 71.96 75.2084 71.96 75.2091 71.96C75.2097 71.96 75.2104 71.96 75.2111 71.96C75.2118 71.96 75.2125 71.96 75.2132 71.96C75.2139 71.96 75.2145 71.96 75.2152 71.96C75.2159 71.96 75.2166 71.96 75.2173 71.96C75.218 71.96 75.2186 71.96 75.2193 71.96C75.22 71.96 75.2207 71.96 75.2214 71.96C75.222 71.96 75.2227 71.96 75.2234 71.96C75.2241 71.96 75.2248 71.96 75.2254 71.96C75.2261 71.96 75.2268 71.96 75.2275 71.96C75.2282 71.96 75.2288 71.96 75.2295 71.96C75.2302 71.96 75.2309 71.96 75.2315 71.96C75.2322 71.96 75.2329 71.96 75.2336 71.96C75.2342 71.96 75.2349 71.96 75.2356 71.96C75.2363 71.96 75.2369 71.96 75.2376 71.96C75.2383 71.96 75.239 71.96 75.2396 71.96C75.2403 71.96 75.241 71.96 75.2416 71.96C75.2423 71.96 75.243 71.96 75.2437 71.96C75.2443 71.96 75.245 71.96 75.2457 71.96C75.2463 71.96 75.247 71.96 75.2477 71.96C75.2483 71.96 75.249 71.96 75.2497 71.96C75.2503 71.96 75.251 71.96 75.2517 71.96C75.2523 71.96 75.253 71.96 75.2537 71.96C75.2543 71.96 75.255 71.96 75.2557 71.96C75.2563 71.96 75.257 71.96 75.2576 71.96C75.2583 71.96 75.259 71.96 75.2596 71.96C75.2603 71.96 75.261 71.96 75.2616 71.96C75.2623 71.96 75.2629 71.96 75.2636 71.96C75.2643 71.96 75.2649 71.96 75.2656 71.96C75.2662 71.96 75.2669 71.96 75.2676 71.96C75.2682 71.96 75.2689 71.96 75.2695 71.96C75.2702 71.96 75.2708 71.96 75.2715 71.96C75.2722 71.96 75.2728 71.96 75.2735 71.96C75.2741 71.96 75.2748 71.96 75.2754 71.96C75.2761 71.96 75.2767 71.96 75.2774 71.96C75.278 71.96 75.2787 71.96 75.2794 71.96C75.28 71.96 75.2807 71.96 75.2813 71.96C75.282 71.96 75.2826 71.96 75.2833 71.96C75.2839 71.96 75.2846 71.96 75.2852 71.96C75.2859 71.96 75.2865 71.96 75.2872 71.96C75.2878 71.96 75.2885 71.96 75.2891 71.96C75.2897 71.96 75.2904 71.96 75.291 71.96C75.2917 71.96 75.2923 71.96 75.293 71.96C75.2936 71.96 75.2943 71.96 75.2949 71.96C75.2956 71.96 75.2962 71.96 75.2968 71.96C75.2975 71.96 75.2981 71.96 75.2988 71.96C75.2994 71.96 75.3001 71.96 75.3007 71.96C75.3013 71.96 75.302 71.96 75.3026 71.96C75.3033 71.96 75.3039 71.96 75.3046 71.96C75.3052 71.96 75.3058 71.96 75.3065 71.96C75.3071 71.96 75.3077 71.96 75.3084 71.96C75.309 71.96 75.3097 71.96 75.3103 71.96C75.3109 71.96 75.3116 71.96 75.3122 71.96C75.3128 71.96 75.3135 71.96 75.3141 71.96C75.3147 71.96 75.3154 71.96 75.316 71.96C75.3166 71.96 75.3173 71.96 75.3179 71.96C75.3185 71.96 75.3192 71.96 75.3198 71.96C75.3204 71.96 75.3211 71.96 75.3217 71.96C75.3223 71.96 75.323 71.96 75.3236 71.96C75.3242 71.96 75.3249 71.96 75.3255 71.96C75.3261 71.96 75.3267 71.96 75.3274 71.96C75.328 71.96 75.3286 71.96 75.3292 71.96C75.3299 71.96 75.3305 71.96 75.3311 71.96C75.3317 71.96 75.3324 71.96 75.333 71.96C75.3336 71.96 75.3343 71.96 75.3349 71.96C75.3355 71.96 75.3361 71.96 75.3367 71.96C75.3374 71.96 75.338 71.96 75.3386 71.96C75.3392 71.96 75.3399 71.96 75.3405 71.96C75.3411 71.96 75.3417 71.96 75.3423 71.96C75.343 71.96 75.3436 71.96 75.3442 71.96C75.3448 71.96 75.3454 71.96 75.3461 71.96C75.3467 71.96 75.3473 71.96 75.3479 71.96C75.3485 71.96 75.3491 71.96 75.3498 71.96C75.3504 71.96 75.351 71.96 75.3516 71.96C75.3522 71.96 75.3528 71.96 75.3534 71.96C75.3541 71.96 75.3547 71.96 75.3553 71.96C75.3559 71.96 75.3565 71.96 75.3571 71.96C75.3577 71.96 75.3584 71.96 75.359 71.96C75.3596 71.96 75.3602 71.96 75.3608 71.96C75.3614 71.96 75.362 71.96 75.3626 71.96C75.3632 71.96 75.3638 71.96 75.3645 71.96C75.3651 71.96 75.3657 71.96 75.3663 71.96C75.3669 71.96 75.3675 71.96 75.3681 71.96C75.3687 71.96 75.3693 71.96 75.3699 71.96C75.3705 71.96 75.3711 71.96 75.3717 71.96C75.3723 71.96 75.3729 71.96 75.3735 71.96C75.3741 71.96 75.3747 71.96 75.3754 71.96C75.376 71.96 75.3766 71.96 75.3772 71.96C75.3778 71.96 75.3784 71.96 75.379 71.96C75.3796 71.96 75.3802 71.96 75.3808 71.96C75.3814 71.96 75.382 71.96 75.3826 71.96C75.3832 71.96 75.3838 71.96 75.3844 71.96C75.3849 71.96 75.3856 71.96 75.3861 71.96C75.3867 71.96 75.3873 71.96 75.3879 71.96C75.3885 71.96 75.3891 71.96 75.3897 71.96C75.3903 71.96 75.3909 71.96 75.3915 71.96C75.3921 71.96 75.3927 71.96 75.3933 71.96C75.3939 71.96 75.3945 71.96 75.3951 71.96C75.3957 71.96 75.3962 71.96 75.3968 71.96C75.3974 71.96 75.398 71.96 75.3986 71.96C75.3992 71.96 75.3998 71.96 75.4004 71.96C75.401 71.96 75.4016 71.96 75.4021 71.96C75.4027 71.96 75.4033 71.96 75.4039 71.96C75.4045 71.96 75.4051 71.96 75.4057 71.96C75.4062 71.96 75.4068 71.96 75.4074 71.96C75.408 71.96 75.4086 71.96 75.4092 71.96C75.4098 71.96 75.4103 71.96 75.4109 71.96C75.4115 71.96 75.4121 71.96 75.4127 71.96C75.4132 71.96 75.4138 71.96 75.4144 71.96C75.415 71.96 75.4156 71.96 75.4162 71.96C75.4167 71.96 75.4173 71.96 75.4179 71.96C75.4185 71.96 75.4191 71.96 75.4196 71.96C75.4202 71.96 75.4208 71.96 75.4214 71.96C75.4219 71.96 75.4225 71.96 75.4231 71.96C75.4237 71.96 75.4242 71.96 75.4248 71.96C75.4254 71.96 75.426 71.96 75.4265 71.96C75.4271 71.96 75.4277 71.96 75.4283 71.96C75.4288 71.96 75.4294 71.96 75.43 71.96C75.4305 71.96 75.4311 71.96 75.4317 71.96C75.4323 71.96 75.4328 71.96 75.4334 71.96C75.434 71.96 75.4345 71.96 75.4351 71.96C75.4357 71.96 75.4363 71.96 75.4368 71.96C75.4374 71.96 75.438 71.96 75.4385 71.96C75.4391 71.96 75.4397 71.96 75.4402 71.96C75.4408 71.96 75.4414 71.96 75.4419 71.96C75.4425 71.96 75.4431 71.96 75.4436 71.96C75.4442 71.96 75.4447 71.96 75.4453 71.96C75.4459 71.96 75.4464 71.96 75.447 71.96C75.4476 71.96 75.4481 71.96 75.4487 71.96C75.4492 71.96 75.4498 71.96 75.4504 71.96C75.4509 71.96 75.4515 71.96 75.452 71.96C75.4526 71.96 75.4532 71.96 75.4537 71.96C75.4543 71.96 75.4548 71.96 75.4554 71.96C75.456 71.96 75.4565 71.96 75.4571 71.96C75.4576 71.96 75.4582 71.96 75.4587 71.96C75.4593 71.96 75.4599 71.96 75.4604 71.96C75.461 71.96 75.4615 71.96 75.4621 71.96C75.4626 71.96 75.4632 71.96 75.4637 71.96C75.4643 71.96 75.4648 71.96 75.4654 71.96C75.4659 71.96 75.4665 71.96 75.467 71.96C75.4676 71.96 75.4681 71.96 75.4687 71.96C75.4692 71.96 75.4698 71.96 75.4703 71.96C75.4709 71.96 75.4714 71.96 75.472 71.96C75.4725 71.96 75.4731 71.96 75.4736 71.96C75.4742 71.96 75.4747 71.96 75.4753 71.96C75.4758 71.96 75.4764 71.96 75.4769 71.96C75.4774 71.96 75.478 71.96 75.4785 71.96C75.4791 71.96 75.4796 71.96 75.4802 71.96C75.4807 71.96 75.4813 71.96 75.4818 71.96C75.4823 71.96 75.4829 71.96 75.4834 71.96C75.484 71.96 75.4845 71.96 75.485 71.96C75.4856 71.96 75.4861 71.96 75.4867 71.96C75.4872 71.96 75.4877 71.96 75.4883 71.96C75.4888 71.96 75.4893 71.96 75.4899 71.96C75.4904 71.96 75.491 71.96 75.4915 71.96C75.492 71.96 75.4926 71.96 75.4931 71.96C75.4936 71.96 75.4942 71.96 75.4947 71.96C75.4952 71.96 75.4958 71.96 75.4963 71.96C75.4968 71.96 75.4974 71.96 75.4979 71.96C75.4984 71.96 75.499 71.96 75.4995 71.96C75.5 71.96 75.5006 71.96 75.5011 71.96C75.5016 71.96 75.5022 71.96 75.5027 71.96C75.5032 71.96 75.5037 71.96 75.5043 71.96C75.5048 71.96 75.5053 71.96 75.5059 71.96C75.5064 71.96 75.5069 71.96 75.5074 71.96C75.508 71.96 75.5085 71.96 75.509 71.96C75.5095 71.96 75.5101 71.96 75.5106 71.96C75.5111 71.96 75.5116 71.96 75.5122 71.96C75.5127 71.96 75.5132 71.96 75.5137 71.96C75.5143 71.96 75.5148 71.96 75.5153 71.96C75.5158 71.96 75.5163 71.96 75.5169 71.96C75.5174 71.96 75.5179 71.96 75.5184 71.96C75.5189 71.96 75.5195 71.96 75.52 71.96C75.5205 71.96 75.521 71.96 75.5215 71.96C75.522 71.96 75.5226 71.96 75.5231 71.96C75.5236 71.96 75.5241 71.96 75.5246 71.96C75.5251 71.96 75.5257 71.96 75.5262 71.96C75.5267 71.96 75.5272 71.96 75.5277 71.96C75.5282 71.96 75.5287 71.96 75.5293 71.96C75.5298 71.96 75.5303 71.96 75.5308 71.96C75.5313 71.96 75.5318 71.96 75.5323 71.96C75.5328 71.96 75.5333 71.96 75.5339 71.96C75.5344 71.96 75.5349 71.96 75.5354 71.96C75.5359 71.96 75.5364 71.96 75.5369 71.96C75.5374 71.96 75.5379 71.96 75.5384 71.96C75.5389 71.96 75.5394 71.96 75.5399 71.96C75.5405 71.96 75.541 71.96 75.5415 71.96C75.542 71.96 75.5425 71.96 75.543 71.96C75.5435 71.96 75.544 71.96 75.5445 71.96C75.545 71.96 75.5455 71.96 75.546 71.96C75.5465 71.96 75.547 71.96 75.5475 71.96C75.548 71.96 75.5485 71.96 75.549 71.96V69.96ZM74.397 69.96C70.2442 69.96 66.0568 69.5196 61.8335 68.6371L61.4245 70.5949C65.7772 71.5044 70.1018 71.96 74.397 71.96V69.96ZM62.4099 68.9913L58.1859 63.7113L56.6241 64.9607L60.8481 70.2407L62.4099 68.9913ZM58.405 64.336V58.48H56.405V64.336H58.405ZM57.2283 59.4643C62.2463 60.3649 66.3441 60.824 69.501 60.824V58.824C66.5139 58.824 62.5477 58.3871 57.5817 57.4957L57.2283 59.4643ZM69.501 60.824C74.4627 60.824 78.3438 60.0922 81.0067 58.498C83.7539 56.8533 85.1287 54.3325 85.0929 51.077L83.0931 51.099C83.1213 53.6675 82.0961 55.5147 79.9793 56.782C77.7782 58.0998 74.3313 58.824 69.501 58.824V60.824ZM85.093 51.088C85.093 47.762 83.7266 45.0384 81.0517 42.997L79.8383 44.587C82.0274 46.2576 83.093 48.398 83.093 51.088H85.093ZM81.0547 42.9994C79.2586 41.6178 77.1621 40.6948 74.7851 40.2194L74.3929 42.1806C76.4959 42.6012 78.3034 43.4062 79.8353 44.5846L81.0547 42.9994ZM74.818 40.2266C72.5301 39.6882 69.0145 39.4003 64.3307 39.3361L64.3033 41.3359C68.9635 41.3997 72.2959 41.6878 74.36 42.1734L74.818 40.2266ZM65.317 40.336V29.104H63.317V40.336H65.317ZM64.317 30.104H75.357V28.104H64.317V30.104ZM75.357 30.104C77.646 30.104 79.5435 29.3404 80.9163 27.7388L79.3977 26.4372C78.4665 27.5236 77.164 28.104 75.357 28.104V30.104ZM80.8985 27.7589C82.313 26.1956 82.981 24.1795 82.981 21.808H80.981C80.981 23.7885 80.433 25.2924 79.4155 26.4171L80.8985 27.7589ZM82.981 21.808C82.981 18.7401 82.0135 16.2803 79.9426 14.6198C77.9138 12.9932 74.9842 12.264 71.325 12.264V14.264C74.7698 14.264 77.1682 14.9588 78.6915 16.1802C80.1725 17.3677 80.981 19.1799 80.981 21.808H82.981ZM71.325 12.264C68.3007 12.264 64.4791 12.9998 59.893 14.4208L60.485 16.3312C64.9869 14.9362 68.5893 14.264 71.325 14.264V12.264ZM61.189 15.376V3.184H59.189V15.376H61.189Z" fill="#141414" mask="url(#path-1-outside-1_311_351)"/>
</svg>
