<svg width="79" height="54" viewBox="0 0 79 54" fill="none" xmlns="http://www.w3.org/2000/svg">
<path fill-rule="evenodd" clip-rule="evenodd" d="M51.3557 1.45946C50.9518 1.45946 50.6242 1.78617 50.6242 2.18919V5.51783C50.6242 6.57399 49.5346 7.28045 48.5672 6.8515L38.7056 2.47911C38.5132 2.39379 38.2932 2.39534 38.102 2.48337L13.8308 13.6586C13.464 13.8275 13.3039 14.2611 13.4732 14.627C13.6425 14.9929 14.0771 15.1527 14.4439 14.9838L37.8126 4.22405C38.195 4.04798 38.635 4.04486 39.0199 4.21552L62.7027 14.716C63.231 14.9503 63.5714 15.4729 63.5714 16.0497V25.8567C63.5714 26.2598 63.899 26.5864 64.3029 26.5864C64.707 26.5864 65.0344 26.2598 65.0344 25.8567V14.627C65.0344 14.3386 64.8643 14.0773 64.6001 13.9602L56.3127 10.2857C55.7844 10.0515 55.444 9.52882 55.444 8.95206V2.18919C55.444 1.78617 55.1164 1.45946 54.7125 1.45946H51.3557ZM52.6496 8.66155C53.2757 8.93917 53.981 8.48194 53.981 7.79837V3.86351C53.981 3.34182 53.557 2.91892 53.0342 2.91892C52.5112 2.91892 52.0872 3.34182 52.0872 3.86351V7.79837C52.0872 8.17167 52.3077 8.50995 52.6496 8.66155Z" fill="#141414"/>
<path d="M52.0872 5.51784V2.18919H49.1613V5.51784H52.0872ZM38.1115 3.81278L47.973 8.18517L49.1613 5.51784L39.2999 1.14544L38.1115 3.81278ZM14.4439 14.9838L38.7151 3.8085L37.489 1.15825L13.2178 12.3335L14.4439 14.9838ZM37.1995 2.89892L13.8308 13.6586L15.057 16.3089L38.4256 5.54919L37.1995 2.89892ZM63.2969 13.3824L39.614 2.88185L38.4256 5.54919L62.1085 16.0497L63.2969 13.3824ZM65.0344 25.8567V16.0497H62.1085V25.8567H65.0344ZM63.5714 14.627V25.8567H66.4974V14.627H63.5714ZM55.7186 11.6194L64.0059 15.2938L65.1942 12.6265L56.9069 8.95206L55.7186 11.6194ZM53.981 2.18919V8.95206H56.9069V2.18919H53.981ZM51.3557 2.91892H54.7125V0H51.3557V2.91892ZM55.444 7.79837V3.86351H52.518V7.79837H55.444ZM50.6242 3.86351V7.79837H53.5502V3.86351H50.6242ZM53.0342 1.45946C51.7032 1.45946 50.6242 2.5358 50.6242 3.86351H53.5502C53.5502 4.14787 53.3192 4.37838 53.0342 4.37838V1.45946ZM55.444 3.86351C55.444 2.5358 54.365 1.45946 53.0342 1.45946V4.37838C52.749 4.37838 52.518 4.14787 52.518 3.86351H55.444ZM52.518 7.79837C52.518 7.42579 52.9024 7.17657 53.2437 7.32789L52.0554 9.99522C53.6489 10.7018 55.444 9.53809 55.444 7.79837H52.518ZM56.9069 2.18919C56.9069 0.980134 55.9244 0 54.7125 0V2.91892C54.3084 2.91892 53.981 2.5922 53.981 2.18919H56.9069ZM64.3029 28.0458C65.515 28.0458 66.4974 27.0658 66.4974 25.8567H63.5714C63.5714 25.4537 63.899 25.1269 64.3029 25.1269V28.0458ZM62.1085 16.0497H65.0344C65.0344 14.8961 64.3535 13.8509 63.2969 13.3824L62.1085 16.0497ZM38.4256 5.54919L39.614 2.88185C38.8442 2.54055 37.9643 2.54677 37.1995 2.89892L38.4256 5.54919ZM13.2178 12.3335C12.1174 12.8402 11.637 14.1408 12.1449 15.2387L14.8015 14.0154C14.9708 14.3813 14.8107 14.8148 14.4439 14.9838L13.2178 12.3335ZM12.1449 15.2387C12.6528 16.3363 13.9565 16.8156 15.057 16.3089L13.8308 13.6586C14.1976 13.4898 14.6323 13.6495 14.8015 14.0154L12.1449 15.2387ZM66.4974 14.627C66.4974 13.7619 65.9867 12.9779 65.1942 12.6265L64.0059 15.2938C63.7417 15.1768 63.5714 14.9154 63.5714 14.627H66.4974ZM49.1613 5.51784L47.973 8.18517C49.9078 9.04306 52.0872 7.63014 52.0872 5.51784H49.1613ZM56.9069 8.95206H53.981C53.981 10.1056 54.6619 11.1509 55.7186 11.6194L56.9069 8.95206ZM39.2999 1.14544C38.7224 0.889462 38.0626 0.894138 37.489 1.15825L38.7151 3.8085C38.5239 3.89655 38.3039 3.8981 38.1115 3.81278L39.2999 1.14544ZM62.1085 25.8567C62.1085 27.0658 63.091 28.0458 64.3029 28.0458V25.1269C64.707 25.1269 65.0344 25.4537 65.0344 25.8567H62.1085ZM50.6242 7.79837C50.6242 8.74844 51.1851 9.60937 52.0554 9.99522L53.2437 7.32789C53.43 7.41052 53.5502 7.59491 53.5502 7.79837H50.6242ZM51.3557 0C50.1438 0 49.1613 0.980134 49.1613 2.18919H52.0872C52.0872 2.5922 51.7598 2.91892 51.3557 2.91892V0Z" fill="#141414"/>
<path d="M10.8008 21.2192V19.8167L15.2925 19.7312V21.2192L14.3582 21.4329L12.0266 29.1892H9.34353L7.95486 24.7253L7.63769 23.3571L7.20053 25.264L5.91472 29.1892H3.2488L0.857205 21.4672L0.0857201 21.2192V19.8167L4.68891 19.7312V21.2192L3.58312 21.4329L4.74034 26.3501L6.60048 20.0305L8.91493 19.6456L10.8351 26.3501L11.8637 21.4843L10.8008 21.2192ZM23.9348 28.0518C23.9348 28.0746 23.7834 28.2029 23.4806 28.4367C23.1777 28.6704 22.8148 28.8842 22.392 29.078C21.969 29.2661 21.5347 29.3602 21.0889 29.3602C20.2318 29.3602 19.5603 29.1237 19.0745 28.6505C18.5946 28.1715 18.3545 27.4932 18.3545 26.6151C18.3545 25.6118 18.7145 24.8793 19.4346 24.4175C20.1547 23.9557 21.2033 23.7248 22.5805 23.7248H23.8148V22.7585C23.8148 21.9033 23.3634 21.4786 22.4604 21.4843C22.1918 21.4843 21.9433 21.5043 21.7148 21.5441C21.4861 21.5841 21.3032 21.6269 21.1661 21.6724C21.0346 21.7124 20.9518 21.7379 20.9174 21.7493L20.6518 22.8525H19.0745L18.9546 20.2614C19.0574 20.2272 19.3088 20.1531 19.7089 20.0391C20.1146 19.925 20.5975 19.8167 21.1575 19.7141C21.7232 19.6115 22.2577 19.5601 22.7605 19.5601C23.6634 19.5601 24.3806 19.6742 24.9121 19.9022C25.4436 20.1246 25.8321 20.4895 26.0779 20.9968C26.3237 21.4986 26.4464 22.1742 26.4464 23.0236V27.3506L27.7666 27.667V29.0695L24.252 29.1892L23.9348 28.0518ZM20.9003 26.3501C20.9003 26.6922 20.989 26.9545 21.1661 27.1369C21.349 27.3135 21.6062 27.4019 21.9376 27.4019C22.2176 27.4019 22.4948 27.3278 22.7691 27.1795C23.0434 27.0257 23.2749 26.8689 23.4634 26.7093C23.652 26.5439 23.7692 26.4356 23.8148 26.3843V25.2128H22.812C22.1319 25.2128 21.6432 25.304 21.3461 25.4864C21.049 25.6688 20.9003 25.9568 20.9003 26.3501ZM35.2859 20.937C35.2859 20.9142 35.4232 20.7802 35.6975 20.535C35.9718 20.2898 36.2889 20.0676 36.649 19.8681C37.0147 19.6629 37.3748 19.5601 37.7291 19.5601C38.0091 19.5601 38.2718 19.583 38.5176 19.6286C38.7634 19.6742 38.9548 19.7227 39.092 19.7739C39.2349 19.8253 39.3234 19.8567 39.3577 19.8681L39.2206 23.2374H37.6434L37.3775 21.7493C37.0747 21.7493 36.7803 21.8234 36.4946 21.9717C36.2146 22.1142 35.9746 22.2738 35.7746 22.4506C35.5803 22.6216 35.4831 22.7128 35.4831 22.7242V27.3506L37.2405 27.7868V29.1892H31.4457V27.7868L32.8516 27.3506V21.6553L31.4457 21.2192V19.8167L35.1317 19.7312L35.2859 20.937ZM59.0752 29.1892H54.3176V27.7868L55.252 27.3506V23.186C55.252 22.6958 55.172 22.3337 55.0119 22.1C54.8577 21.8662 54.5976 21.7493 54.2319 21.7493C53.8948 21.7493 53.5804 21.8178 53.289 21.9547C53.0033 22.0857 52.7632 22.2311 52.5689 22.3907C52.3804 22.5447 52.286 22.633 52.286 22.6558V27.3506L53.1947 27.7868V29.1892H48.7373V27.7868L49.6544 27.3506V23.186C49.6544 22.6844 49.5773 22.3195 49.423 22.0914C49.2686 21.8634 49.0116 21.7493 48.6516 21.7493C48.3144 21.7493 47.9972 21.8178 47.7001 21.9547C47.4086 22.0857 47.1656 22.234 46.9714 22.3994C46.7828 22.5589 46.6886 22.6444 46.6886 22.6558V27.3506L47.6143 27.7868V29.1892H42.7026V27.7868L44.0484 27.3506V21.6553L42.7197 21.2192V19.8167L46.3885 19.7312L46.5085 20.9711C46.5085 20.9484 46.6772 20.8116 47.0142 20.5607C47.3571 20.3098 47.7571 20.0819 48.2143 19.8765C48.6715 19.6656 49.1259 19.5601 49.5773 19.5601C50.7603 19.5601 51.5689 20.0619 52.0032 21.0653C52.3289 20.7402 52.7719 20.4097 53.3319 20.0733C53.8976 19.7312 54.5148 19.5601 55.1834 19.5601C56.0863 19.5601 56.7606 19.8338 57.2064 20.3811C57.6579 20.9284 57.8836 21.7038 57.8836 22.7072V27.3506L59.0752 27.7868V29.1892Z" fill="#141414"/>
<path fill-rule="evenodd" clip-rule="evenodd" d="M13.9304 35.027C13.5264 35.027 13.1989 35.3538 13.1989 35.7568V51.0811C13.1989 51.484 13.5264 51.8108 13.9304 51.8108H64.3704C64.7743 51.8108 65.1019 51.484 65.1019 51.0811V50.3674C65.1019 50.3585 65.0947 50.3513 65.0858 50.3513C65.0768 50.3513 65.0695 50.3442 65.0695 50.3353V47.4324C65.0695 47.0295 64.7421 46.7027 64.338 46.7027C63.9341 46.7027 63.6066 47.0295 63.6066 47.4324V48.8919C63.6066 49.6979 62.9516 50.3513 62.1436 50.3513H16.1249C15.3169 50.3513 14.662 49.6979 14.662 48.8919V35.7568C14.662 35.3538 14.3344 35.027 13.9304 35.027Z" fill="#141414"/>
<path d="M14.662 51.0811V35.7568H11.736V51.0811H14.662ZM64.3704 50.3514H13.9304V53.2703H64.3704V50.3514ZM63.6389 50.3674V51.0811H66.5648V50.3674H63.6389ZM63.6066 47.4324V50.3353H66.5325V47.4324H63.6066ZM65.0695 48.8919V47.4324H62.1436V48.8919H65.0695ZM16.1249 51.8108H62.1436V48.8919H16.1249V51.8108ZM13.1989 35.7568V48.8919H16.1249V35.7568H13.1989ZM16.1249 35.7568C16.1249 34.5477 15.1424 33.5676 13.9304 33.5676V36.4865C13.5264 36.4865 13.1989 36.1597 13.1989 35.7568H16.1249ZM16.1249 48.8919H13.1989C13.1989 50.504 14.5089 51.8108 16.1249 51.8108V48.8919ZM62.1436 48.8919V51.8108C63.7596 51.8108 65.0695 50.504 65.0695 48.8919H62.1436ZM64.338 45.2432C63.1261 45.2432 62.1436 46.2234 62.1436 47.4324H65.0695C65.0695 47.8354 64.7421 48.1622 64.338 48.1622V45.2432ZM66.5325 47.4324C66.5325 46.2234 65.5501 45.2432 64.338 45.2432V48.1622C63.9341 48.1622 63.6066 47.8354 63.6066 47.4324H66.5325ZM66.5648 50.3674C66.5648 49.5526 65.9027 48.8919 65.0858 48.8919V51.8108C64.2867 51.8108 63.6389 51.1646 63.6389 50.3674H66.5648ZM64.3704 53.2703C65.5823 53.2703 66.5648 52.2901 66.5648 51.0811H63.6389C63.6389 50.6781 63.9664 50.3514 64.3704 50.3514V53.2703ZM11.736 51.0811C11.736 52.2901 12.7185 53.2703 13.9304 53.2703V50.3514C14.3344 50.3514 14.662 50.6781 14.662 51.0811H11.736ZM65.0858 48.8919C65.8848 48.8919 66.5325 49.5381 66.5325 50.3353H63.6066C63.6066 51.1503 64.2688 51.8108 65.0858 51.8108V48.8919ZM14.662 35.7568C14.662 36.1597 14.3344 36.4865 13.9304 36.4865V33.5676C12.7185 33.5676 11.736 34.5477 11.736 35.7568H14.662Z" fill="#141414"/>
<path d="M23.4074 35.3434C23.7674 35.0413 24.2046 34.7677 24.719 34.5225C25.239 34.2773 25.7847 34.1547 26.3562 34.1547C27.2477 34.1547 27.9306 34.4313 28.4049 34.9843C28.8792 35.5372 29.1163 36.3097 29.1163 37.3017V41.9451L30.3421 42.3814V43.7838H25.5676V42.3814L26.4763 41.9624V37.7207C26.4763 36.7858 26.0905 36.3211 25.3189 36.3268C25.0275 36.3268 24.7418 36.3982 24.4618 36.5406C24.1818 36.6775 23.9474 36.82 23.7588 36.9682C23.5702 37.1107 23.4531 37.2048 23.4074 37.2504V41.9451L24.3418 42.3814V43.7838H19.3699V42.3814L20.7758 41.9451V32.1024L19.3699 31.7518V30.3493L23.4074 30.2126V35.3434ZM37.8925 34.1547C39.304 34.1547 40.3927 34.5652 41.1584 35.3862C41.9298 36.2071 42.3156 37.373 42.3156 38.8838C42.3156 39.9213 42.1213 40.8221 41.7328 41.586C41.3499 42.35 40.807 42.9371 40.1041 43.3477C39.4011 43.7524 38.5754 43.9548 37.6267 43.9548C34.6437 43.9548 33.1521 42.35 33.1521 39.1404C33.1521 38.1027 33.3463 37.2105 33.735 36.4637C34.1293 35.7169 34.6836 35.1467 35.398 34.7534C36.1124 34.3544 36.9438 34.1547 37.8925 34.1547ZM37.7981 36.2499C37.1353 36.2499 36.6466 36.4637 36.3324 36.8912C36.0237 37.3188 35.8695 38.0401 35.8695 39.0548C35.8695 40.0239 36.0152 40.7338 36.3066 41.1842C36.6038 41.6344 37.0724 41.8596 37.7124 41.8596C38.3582 41.8596 38.8324 41.6344 39.1354 41.1842C39.4383 40.7338 39.5897 39.9955 39.5897 38.9693C39.5897 38.0571 39.4469 37.3759 39.1612 36.9255C38.8753 36.4751 38.4211 36.2499 37.7981 36.2499ZM44.9456 34.4113L48.9829 34.3257V40.3717C48.9829 40.8619 49.063 41.2183 49.223 41.4406C49.3888 41.6573 49.6658 41.7656 50.0545 41.7656C50.3916 41.7656 50.706 41.6972 50.9974 41.5604C51.2889 41.4178 51.5346 41.2668 51.7346 41.1071C51.9346 40.9418 52.0347 40.8478 52.0347 40.825V36.2499L50.6288 35.8138V34.4113L54.6662 34.3257V41.9451L56.072 42.2959V43.6641L52.369 43.7838L52.1975 42.5609C52.1975 42.5837 52.0347 42.7176 51.7089 42.9628C51.3889 43.208 51.0002 43.436 50.543 43.6469C50.0859 43.8522 49.6116 43.9548 49.1202 43.9548C48.24 43.9548 47.5571 43.6783 47.0714 43.1253C46.5914 42.5723 46.3514 41.8055 46.3514 40.825V36.2499L44.9456 35.8138V34.4113ZM60.5706 41.8596C60.5706 41.8712 60.725 41.9024 61.0335 41.9538C61.3422 42.005 61.6792 42.0307 62.045 42.0307C63.0051 42.0307 63.4824 41.7456 63.4766 41.1756C63.4766 40.919 63.3424 40.7109 63.0737 40.5514C62.8051 40.3917 62.3794 40.215 61.7964 40.0211C61.1735 39.8101 60.6621 39.6049 60.2621 39.4054C59.8678 39.2059 59.5249 38.9236 59.2335 38.5588C58.942 38.1882 58.7962 37.718 58.7962 37.1478C58.7962 36.1216 59.1391 35.3662 59.8249 34.8817C60.5163 34.3971 61.3793 34.1547 62.4137 34.1547C62.8822 34.1547 63.3565 34.1918 63.8367 34.2659C64.3224 34.3401 64.7281 34.4227 65.0539 34.5139C65.3854 34.5994 65.5911 34.6535 65.6711 34.6765L65.6025 37.3017H64.111L63.8538 36.2499C63.8538 36.2385 63.7223 36.2071 63.4594 36.1558C63.2023 36.1045 62.928 36.0789 62.6365 36.0789C62.2479 36.0789 61.9479 36.1558 61.7365 36.3097C61.5308 36.458 61.4279 36.6775 61.4279 36.9682C61.4279 37.2248 61.5622 37.43 61.8308 37.584C62.0994 37.7378 62.5251 37.9004 63.108 38.0713C63.7309 38.271 64.2424 38.4619 64.6423 38.6443C65.0482 38.8267 65.3939 39.0947 65.6796 39.4482C65.971 39.7959 66.1169 40.2491 66.1169 40.8078C66.1169 41.7998 65.7511 42.5723 65.0196 43.1253C64.2882 43.6783 63.308 43.9548 62.0794 43.9548C61.5878 43.9548 61.1021 43.9264 60.6221 43.8693C60.1421 43.8122 59.7449 43.7553 59.4305 43.6983C59.122 43.6412 58.9277 43.5984 58.8477 43.57V40.7223H60.4249L60.5706 41.8596ZM71.8411 39.6363C71.8869 40.3376 72.0983 40.8849 72.4755 41.2782C72.8585 41.6658 73.3556 41.8596 73.9671 41.8596C74.4013 41.8596 74.8357 41.7998 75.27 41.6801C75.7101 41.5547 76.0729 41.4292 76.3586 41.3039C76.65 41.1727 76.8358 41.0814 76.9159 41.0302L77.6702 42.484C77.6702 42.5067 77.4645 42.6521 77.0529 42.9201C76.6473 43.1823 76.1472 43.4218 75.5528 43.6384C74.9643 43.8493 74.3356 43.9548 73.6671 43.9548C72.1813 43.9548 71.0497 43.5443 70.2726 42.7233C69.4953 41.9024 69.1067 40.7395 69.1067 39.2343C69.1067 38.2196 69.2925 37.3302 69.664 36.5663C70.0411 35.7966 70.5811 35.2038 71.284 34.7875C71.9868 34.3657 72.8213 34.1547 73.787 34.1547C75.0728 34.1547 76.0587 34.5225 76.7444 35.2579C77.4302 35.9933 77.773 36.9967 77.773 38.268C77.773 38.5474 77.7588 38.8183 77.7301 39.0804C77.7016 39.3426 77.6816 39.508 77.6702 39.5764L71.8411 39.6363ZM73.6156 36.2499C73.1356 36.2499 72.7441 36.4123 72.4412 36.7374C72.1384 37.0565 71.9498 37.4785 71.8755 38.003H75.0557C75.0557 37.4785 74.9385 37.0565 74.7043 36.7374C74.4699 36.4123 74.1071 36.2499 73.6156 36.2499Z" fill="#141414"/>
</svg>
