<svg width="26" height="27" viewBox="0 0 26 27" fill="none" xmlns="http://www.w3.org/2000/svg">
<path d="M4.99958 21.0833C4.50125 21.0833 4.08525 20.9165 3.75158 20.5828C3.41719 20.2484 3.25 19.8321 3.25 19.3337V7.66625C3.25 7.16791 3.41719 6.75191 3.75158 6.41825C4.08525 6.08386 4.50125 5.91666 4.99958 5.91666H21.0004C21.4988 5.91666 21.9148 6.08386 22.2484 6.41825C22.5828 6.75191 22.75 7.16791 22.75 7.66625V19.3337C22.75 19.8321 22.5832 20.2481 22.2495 20.5817C21.9151 20.9161 21.4988 21.0833 21.0004 21.0833H4.99958ZM13 13.6246L4.33333 7.95875V19.3337C4.33333 19.528 4.39581 19.6876 4.52075 19.8126C4.64569 19.9375 4.80531 20 4.99958 20H21.0004C21.1947 20 21.3543 19.9375 21.4792 19.8126C21.6042 19.6876 21.6667 19.528 21.6667 19.3337V7.95875L13 13.6246ZM13 12.4167L21.333 7H4.667L13 12.4167ZM4.33333 7.95875V7V19.3337C4.33333 19.528 4.39581 19.6876 4.52075 19.8126C4.64569 19.9375 4.80531 20 4.99958 20H4.33333V7.95875Z" fill="black"/>
</svg>
